<?xml version="1.0" standalone="no"?><!DOCTYPE svg PUBLIC "-//W3C//DTD SVG 1.1//EN" "http://www.w3.org/Graphics/SVG/1.1/DTD/svg11.dtd" ><svg xmlns="http://www.w3.org/2000/svg"><metadata></metadata><defs><font id="FontEditor 1.0 : fonteditor" horiz-adv-x="1024"><font-face font-family="fonteditor" font-weight="400" font-stretch="normal" units-per-em="1024" panose-1="2 0 6 3 0 0 0 0 0 0" ascent="812" descent="-212" x-height="0" bbox="-168 -256 1024 1002" underline-thickness="0" underline-position="50" unicode-range="U+0021-fb02" /><missing-glyph horiz-adv-x="569" d="M261 667 Q232 667 207 657.5 Q182 648 163 631 Q144 614 133.5 590.5 Q123 567 123 539 Q123 505 133.5 482.5 Q144 460 163 445 Q182 430 207 421 Q232 412 261 403 L261 667 ZM309 36 Q341 36 369 47 Q397 58 418.5 77.5 Q440 97 452.5 124.5 Q465 152 465 184 Q465 222 452.5 247 Q440 272 419 288 Q398 304 370 313.5 Q342 323 309 330 L309 36 ZM309 -97 L262 -97 L262 -19 Q175 -14 118 29 Q61 72 43 158 Q41 171 40 183.5 Q39 196 38 208 L104 208 Q104 173 115.5 143 Q127 113 148 90 Q169 67 197.5 52.5 Q226 38 261 36 L261 340 Q219 350 181.5 364 Q144 378 116.5 400 Q89 422 73 454.5 Q57 487 57 536 Q57 579 73.5 613.5 Q90 648 118 672.5 Q146 697 183 710 Q220 723 262 722 L262 784 L309 784 L309 722 Q351 722 387 710 Q423 698 449.5 675 Q476 652 491.5 618.5 Q507 585 509 542 L442 542 Q442 569 431.5 592 Q421 615 403 631.5 Q385 648 361 657.5 Q337 667 309 667 L309 394 Q359 382 400 367.5 Q441 353 470 329.5 Q499 306 514.5 268.5 Q530 231 530 173 Q530 128 511 92.5 Q492 57 460.5 32.5 Q429 8 389 -5 Q349 -18 309 -19 L309 -97 Z" /><glyph glyph-name="percent" unicode="%" d="M673 281 Q649 281 629 271.5 Q609 262 594.5 246.5 Q580 231 571 210.5 Q562 190 562 168 Q562 146 571.5 126 Q581 106 596 91 Q611 76 631 67 Q651 58 673 58 Q695 58 715 67.5 Q735 77 750 92.5 Q765 108 773.5 127.5 Q782 147 782 170 Q782 193 773.5 212.5 Q765 232 750 247.5 Q735 263 715 272 Q695 281 673 281 ZM238 434 Q260 434 280 443 Q300 452 315.5 467 Q331 482 340 502 Q349 522 349 545 Q349 567 340.5 587 Q332 607 316.5 622.5 Q301 638 280.5 647 Q260 656 238 656 Q215 656 195 647.5 Q175 639 159.5 623.5 Q144 608 135.5 587.5 Q127 567 127 545 Q127 522 135.5 502 Q144 482 159.5 467 Q175 452 195 443 Q215 434 238 434 ZM278 -14 L224 -14 L631 722 L684 722 L278 -14 ZM674 339 Q709 339 739.5 325.5 Q770 312 792.5 289 Q815 266 828 235.5 Q841 205 841 170 Q841 135 828 104 Q815 73 792.5 50 Q770 27 739.5 13.5 Q709 0 674 0 Q639 0 608 13.5 Q577 27 553.5 50 Q530 73 517 104 Q504 135 504 170 Q504 205 517.5 235.5 Q531 266 554.5 289 Q578 312 608.5 325.5 Q639 339 674 339 ZM408 545 Q408 510 394.5 479.5 Q381 449 358 425.5 Q335 402 303.5 389 Q272 376 238 376 Q203 376 172 389 Q141 402 118 425.5 Q95 449 82 479.5 Q69 510 69 545 Q69 580 82 610.5 Q95 641 118 664 Q141 687 172 701 Q203 715 238 715 Q272 715 303.5 701.5 Q335 688 358 665 Q381 642 394.5 611 Q408 580 408 545 Z" /><glyph glyph-name="ampersand" unicode="&amp;" d="M387 553 Q396 573 394.5 596.5 Q393 620 381.5 638.5 Q370 657 349.5 669.5 Q329 682 300 682 Q281 682 263.5 676 Q246 670 232 658.5 Q218 647 210 630.5 Q202 614 202 594 Q202 578 210 558.5 Q218 539 230 520.5 Q242 502 255 485 Q268 468 279 456 Q309 474 340.5 496 Q372 518 387 553 ZM255 384 Q224 370 198 350 Q172 330 153 305.5 Q134 281 123 252.5 Q112 224 112 195 Q112 158 124.5 128.5 Q137 99 159 78.5 Q181 58 211.5 47 Q242 36 278 36 Q337 36 382.5 63 Q428 90 465 134 L255 384 ZM500 190 Q519 223 524.5 259.5 Q530 296 530 334 L591 334 Q589 284 578 234 Q567 184 540 141 L659 0 L577 0 L505 87 Q457 30 401.5 5.5 Q346 -19 272 -19 Q224 -19 182 -3.5 Q140 12 109 41 Q78 70 60 110.5 Q42 151 42 200 Q42 241 56.5 275.5 Q71 310 95 339 Q119 368 150.5 390 Q182 412 218 428 Q188 463 163.5 503.5 Q139 544 139 593 Q139 628 152.5 655 Q166 682 188.5 700.5 Q211 719 241 728 Q271 737 305 737 Q339 737 367.5 726 Q396 715 416.5 695.5 Q437 676 448.5 650 Q460 624 460 595 Q460 558 448 531 Q436 504 416 483 Q396 462 369.5 444.5 Q343 427 314 410 L500 190 Z" /><glyph glyph-name="quoteright" unicode="&#x2019;" d="M157 616 Q157 571 136 544 Q115 517 82 507 L82 545 Q94 553 105.5 567.5 Q117 582 117 612 L117 647 L82 647 L82 737 L157 737 L157 616 Z" /><glyph glyph-name="parenleft" unicode="(" d="M284 757 Q210 650 168.5 529 Q127 408 127 278 Q127 150 170 30 Q213 -90 284 -196 L231 -196 Q189 -137 156.5 -82.5 Q124 -28 101.5 29 Q79 86 67.5 148 Q56 210 56 283 Q56 353 68 415 Q80 477 102.5 534.5 Q125 592 157 646.5 Q189 701 231 757 L284 757 Z" /><glyph glyph-name="parenright" unicode=")" d="M57 -196 Q131 -89 172.5 32.5 Q214 154 214 284 Q214 412 171 531.5 Q128 651 57 757 L110 757 Q152 698 184.5 643.5 Q217 589 239 532 Q261 475 273 413 Q285 351 285 279 Q285 208 273 146 Q261 84 238.5 26.5 Q216 -31 183.5 -85.5 Q151 -140 110 -196 L57 -196 Z" /><glyph glyph-name="asterisk" unicode="*" d="M177 617 L177 737 L220 737 L220 617 L337 660 L352 615 L236 578 L312 469 L272 444 L197 555 L117 446 L81 474 L160 578 L45 618 L63 662 L177 617 Z" /><glyph glyph-name="plus" unicode="+" d="M307 512 L369 512 L369 287 L594 287 L594 225 L369 225 L369 0 L307 0 L307 225 L82 225 L82 287 L307 287 L307 512 Z" /><glyph glyph-name="comma" unicode="," d="M179 -31 Q179 -76 158 -103 Q137 -130 104 -140 L104 -102 Q117 -94 128 -80 Q139 -66 139 -35 L139 0 L104 0 L104 90 L179 90 L179 -31 Z" /><glyph glyph-name="hyphen" unicode="­-" d="M300 298 L300 234 L41 234 L41 298 L300 298 Z" /><glyph glyph-name="period" unicode="." d="M104 0 L104 90 L179 90 L179 0 L104 0 Z" /><glyph glyph-name="slash" unicode="/" d="M54 -92 L-3 -92 L238 757 L295 757 L54 -92 Z" /><glyph glyph-name="zero" unicode="0" d="M463 355 Q463 414 456.5 469.5 Q450 525 430.5 569 Q411 613 375.5 640 Q340 667 283 667 Q228 667 194 639.5 Q160 612 140.5 567 Q121 522 113 465 Q105 408 105 348 Q105 279 114 222 Q123 165 143.5 125 Q164 85 198 63 Q232 41 285 41 Q343 41 378.5 69.5 Q414 98 432.5 143 Q451 188 457 244.5 Q463 301 463 355 ZM285 722 Q338 722 377 706 Q416 690 443 662.5 Q470 635 487 598 Q504 561 513 519.5 Q522 478 525 434 Q528 390 528 348 Q528 276 518 210.5 Q508 145 481 95 Q454 45 406.5 15.5 Q359 -14 285 -14 Q210 -14 162.5 15.5 Q115 45 87.5 95.5 Q60 146 50 213.5 Q40 281 40 355 Q40 424 49 489.5 Q58 555 84.5 606.5 Q111 658 159 690 Q207 722 285 722 Z" /><glyph glyph-name="one" unicode="1" d="M309 537 L123 537 L123 580 Q164 583 197 588 Q230 593 255.5 607.5 Q281 622 297.5 649 Q314 676 323 722 L375 722 L375 0 L309 0 L309 537 Z" /><glyph glyph-name="two" unicode="2" d="M71 485 Q71 539 87 582.5 Q103 626 134 657 Q165 688 208.5 705 Q252 722 305 722 Q359 722 400.5 706 Q442 690 470.5 663.5 Q499 637 513 600 Q527 563 527 522 Q527 474 511.5 437 Q496 400 469.5 371.5 Q443 343 410 320.5 Q377 298 342 278 Q307 258 273.5 239.5 Q240 221 213 201 Q196 187 179.5 172.5 Q163 158 149.5 140.5 Q136 123 128 102 Q120 81 119 55 L521 55 L521 0 L49 0 Q50 52 60.5 94 Q71 136 105 176 Q143 219 183.5 250 Q224 281 263 305 Q302 329 337 349 Q372 369 398.5 392.5 Q425 416 440.5 445.5 Q456 475 456 518 Q456 553 443.5 580.5 Q431 608 409.5 627.5 Q388 647 359.5 657 Q331 667 297 667 Q261 667 232 652 Q203 637 182 612.5 Q161 588 149.5 555 Q138 522 140 485 L71 485 Z" /><glyph glyph-name="three" unicode="3" d="M226 401 Q272 401 310 407 Q348 413 375 428.5 Q402 444 417.5 471 Q433 498 433 540 Q433 573 421 597.5 Q409 622 388 637 Q367 652 338.5 659.5 Q310 667 280 667 Q245 667 216.5 655.5 Q188 644 167.5 623 Q147 602 136 574 Q125 546 125 512 L59 512 Q59 561 76 600.5 Q93 640 129 674 Q163 705 205.5 713.5 Q248 722 293 722 Q336 722 373.5 711 Q411 700 438.5 678 Q466 656 482.5 622.5 Q499 589 499 544 Q499 487 474 446.5 Q449 406 396 383 Q435 371 460 351 Q485 331 499.5 307 Q514 283 519 256 Q524 229 524 205 Q524 160 509 121 Q494 82 464 52.5 Q434 23 390.5 5 Q347 -13 292 -14 Q229 -14 183 -3 Q137 8 106.5 34 Q76 60 58.5 102.5 Q41 145 35 209 L100 209 Q100 126 150 83.5 Q200 41 280 41 Q318 41 352 54.5 Q386 68 410 90.5 Q434 113 447 142.5 Q460 172 459 204 Q457 248 438.5 277 Q420 306 388.5 323 Q357 340 315 345.5 Q273 351 226 348 L226 401 Z" /><glyph glyph-name="four" unicode="4" d="M101 233 L367 233 L367 616 L101 233 ZM367 178 L37 178 L37 234 L373 715 L432 715 L432 233 L532 233 L532 178 L432 178 L432 0 L367 0 L367 178 Z" /><glyph glyph-name="five" unicode="5" d="M101 187 Q112 114 160.5 77.5 Q209 41 280 41 Q319 41 351.5 55.5 Q384 70 406.5 95 Q429 120 441 153 Q453 186 453 225 Q453 265 440 299 Q427 333 404 357.5 Q381 382 347.5 395.5 Q314 409 273 409 Q224 409 185 391 Q146 373 117 334 L62 341 L121 715 L479 715 L479 659 L176 659 L131 417 Q153 430 170.5 439.5 Q188 449 206.5 454.5 Q225 460 245 462 Q265 464 290 464 Q339 464 381 447.5 Q423 431 453.5 400.5 Q484 370 501 325.5 Q518 281 518 225 Q518 168 499 123.5 Q480 79 448.5 48 Q417 17 375.5 1.5 Q334 -14 290 -14 Q239 -14 194.5 -4 Q150 6 116 30 Q82 54 61 92.5 Q40 131 36 187 L101 187 Z" /><glyph glyph-name="six" unicode="6" d="M295 397 Q257 397 227 383 Q197 369 176 344 Q155 319 143.5 287 Q132 255 132 218 Q132 187 141 156 Q150 125 169.5 99.5 Q189 74 220 57.5 Q251 41 296 41 Q342 41 373 57 Q404 73 423.5 99 Q443 125 452 157 Q461 189 461 222 Q461 306 420.5 351.5 Q380 397 295 397 ZM447 545 Q436 600 402.5 633.5 Q369 667 310 667 Q244 667 205.5 635 Q167 603 146.5 554.5 Q126 506 119 448.5 Q112 391 108 340 Q123 360 140 380.5 Q157 401 178.5 417 Q200 433 228.5 443 Q257 453 297 453 Q407 453 466.5 391 Q526 329 526 220 Q526 111 466 48.5 Q406 -14 295 -14 Q241 -14 194.5 4 Q148 22 114.5 62.5 Q81 103 61.5 169.5 Q42 236 42 331 Q42 395 53.5 464.5 Q65 534 94 591 Q123 648 173.5 685 Q224 722 304 722 Q390 722 447.5 677 Q505 632 515 545 L447 545 Z" /><glyph glyph-name="seven" unicode="7" d="M60 715 L520 715 L520 653 Q442 565 388 472.5 Q334 380 299 292.5 Q264 205 247 129 Q230 53 227 0 L156 0 Q161 78 187 165.5 Q213 253 252 339 Q291 425 340 505.5 Q389 586 441 649 L60 649 L60 715 Z" /><glyph glyph-name="eight" unicode="8" d="M283 667 Q252 667 225.5 658.5 Q199 650 179 633.5 Q159 617 147.5 592.5 Q136 568 136 537 Q136 503 149 479 Q162 455 183.5 439.5 Q205 424 232.5 416.5 Q260 409 290 409 Q319 409 345 416.5 Q371 424 389.5 441.5 Q408 459 418.5 485.5 Q429 512 429 551 Q429 606 393 636.5 Q357 667 283 667 ZM286 353 Q248 353 216 344 Q184 335 160.5 316 Q137 297 124 268 Q111 239 111 199 Q111 165 123.5 136.5 Q136 108 159 87 Q182 66 215.5 53.5 Q249 41 290 41 Q326 41 356.5 53 Q387 65 410 86.5 Q433 108 446 137.5 Q459 167 459 203 Q459 241 445.5 269 Q432 297 408.5 316 Q385 335 353.5 344 Q322 353 286 353 ZM171 388 Q144 404 125 419 Q106 434 94 451.5 Q82 469 76.5 491 Q71 513 71 546 Q71 583 87 615.5 Q103 648 131 672 Q159 696 196 709.5 Q233 723 276 722 Q317 722 356.5 711.5 Q396 701 427 679.5 Q458 658 476.5 625 Q495 592 495 546 Q495 489 472 449.5 Q449 410 396 384 Q456 362 490 315 Q524 268 524 205 Q524 152 506 111 Q488 70 455 42 Q422 14 375 0 Q328 -14 270 -14 Q231 -14 191 -1 Q151 12 118.5 39 Q86 66 65.5 105.5 Q45 145 45 199 Q45 263 77.5 314 Q110 365 171 388 Z" /><glyph glyph-name="nine" unicode="9" d="M274 667 Q191 665 149.5 615.5 Q108 566 108 481 Q108 398 151.5 352 Q195 306 274 306 Q312 306 342.5 320.5 Q373 335 394 359.5 Q415 384 425.5 416.5 Q436 449 436 485 Q436 565 393 615 Q350 665 274 667 ZM121 159 Q132 100 166.5 70.5 Q201 41 261 41 Q326 41 364 72.5 Q402 104 423 152.5 Q444 201 452 256.5 Q460 312 462 361 L460 364 Q427 308 378.5 279.5 Q330 251 265 251 Q214 251 173 267.5 Q132 284 103 314.5 Q74 345 58 388 Q42 431 42 483 Q42 535 56.5 578.5 Q71 622 99.5 654 Q128 686 171.5 704 Q215 722 274 722 Q347 722 395.5 693.5 Q444 665 473.5 615.5 Q503 566 515 499.5 Q527 433 527 357 Q527 265 507.5 196 Q488 127 453 80 Q418 33 370 9.5 Q322 -14 264 -14 Q222 -14 185 -4 Q148 6 120.5 27.5 Q93 49 75.5 82 Q58 115 54 159 L121 159 Z" /><glyph glyph-name="colon" unicode=":" d="M104 414 L104 504 L179 504 L179 414 L104 414 ZM104 0 L104 90 L179 90 L179 0 L104 0 Z" /><glyph glyph-name="semicolon" unicode=";" d="M104 414 L104 504 L179 504 L179 414 L104 414 ZM179 -31 Q179 -76 158 -103 Q137 -130 104 -140 L104 -102 Q117 -94 128 -80 Q139 -66 139 -35 L139 0 L104 0 L104 90 L179 90 L179 -31 Z" /><glyph glyph-name="less" unicode="&lt;" d="M594 59 L594 -6 L82 234 L82 289 L594 517 L594 452 L163 261 L594 59 Z" /><glyph glyph-name="equal" unicode="=" d="M594 127 L82 127 L82 188 L594 188 L594 127 ZM594 326 L82 326 L82 387 L594 387 L594 326 Z" /><glyph glyph-name="greater" unicode="&gt;" d="M594 234 L82 -6 L82 59 L513 261 L82 452 L82 517 L594 289 L594 234 Z" /><glyph glyph-name="question" unicode="?" d="M215 0 L215 90 L290 90 L290 0 L215 0 ZM221 186 Q220 243 229 289 Q238 335 278 377 Q300 400 324.5 422.5 Q349 445 369.5 468.5 Q390 492 404 516.5 Q418 541 418 569 Q418 597 407 621 Q396 645 375.5 663 Q355 681 325.5 691 Q296 701 258 701 Q220 701 190.5 688 Q161 675 141 651.5 Q121 628 110.5 596.5 Q100 565 101 528 L39 528 Q35 580 50.5 622 Q66 664 96 694 Q126 724 168 740.5 Q210 757 260 757 Q312 757 353.5 743 Q395 729 424 704 Q453 679 468 643 Q483 607 483 564 Q483 519 463 487 Q443 455 414.5 427 Q386 399 355.5 371 Q325 343 302 308 Q285 282 283 249.5 Q281 217 281 186 L221 186 Z" /><glyph glyph-name="at" unicode="@" d="M345 201 Q380 201 410.5 229.5 Q441 258 464 298.5 Q487 339 500.5 384.5 Q514 430 514 465 Q514 495 494.5 517.5 Q475 540 443 540 Q402 540 369.5 514.5 Q337 489 314 452 Q291 415 278 372.5 Q265 330 265 295 Q265 258 285.5 229.5 Q306 201 345 201 ZM761 171 Q736 126 700.5 90.5 Q665 55 621.5 30.5 Q578 6 528.5 -6.5 Q479 -19 429 -19 Q347 -19 276 11.5 Q205 42 152.5 95 Q100 148 70.5 219.5 Q41 291 41 372 Q41 452 71.5 522 Q102 592 155 644 Q208 696 277.5 726.5 Q347 757 425 757 Q499 757 563.5 733 Q628 709 675.5 666 Q723 623 750.5 563.5 Q778 504 778 433 Q778 373 756 318.5 Q734 264 700 223 Q666 182 623.5 158 Q581 134 540 134 Q513 134 487 147 Q461 160 452 187 Q428 164 395 150 Q362 136 330 136 Q297 136 270.5 148.5 Q244 161 225.5 182 Q207 203 197 230.5 Q187 258 187 290 Q187 341 205.5 396 Q224 451 257.5 496.5 Q291 542 337.5 571 Q384 600 441 600 Q477 600 509 582.5 Q541 565 556 532 L571 580 L640 580 L537 270 Q530 253 526.5 238 Q523 223 524 212 Q525 201 532 194 Q539 187 554 187 Q586 187 615.5 210.5 Q645 234 667.5 270.5 Q690 307 703.5 351 Q717 395 717 436 Q717 499 693.5 549 Q670 599 630 634 Q590 669 537.5 687.5 Q485 706 427 706 Q356 706 296.5 678.5 Q237 651 194 604.5 Q151 558 126.5 496 Q102 434 102 365 Q102 295 127.5 234.5 Q153 174 197 129 Q241 84 300 58 Q359 32 429 32 Q469 32 507.5 41 Q546 50 581 68 Q616 86 646.5 112 Q677 138 700 171 L761 171 Z" /><glyph glyph-name="A" unicode="a" d="M198 291 L486 291 L342 678 L198 291 ZM15 0 L305 737 L384 737 L667 0 L595 0 L510 231 L174 231 L87 0 L15 0 Z" /><glyph glyph-name="B" unicode="b" d="M153 412 L329 412 Q383 412 420 421 Q457 430 479.5 448 Q502 466 511.5 492 Q521 518 521 552 Q521 587 510 611 Q499 635 474.5 650 Q450 665 410.5 671.5 Q371 678 313 678 L153 678 L153 412 ZM153 59 L330 59 Q387 59 429.5 64.5 Q472 70 499.5 85.5 Q527 101 541 130.5 Q555 160 555 208 Q555 254 539.5 282 Q524 310 495.5 325.5 Q467 341 427 346.5 Q387 352 338 352 L153 352 L153 59 ZM83 0 L83 737 L349 737 Q414 737 460 724 Q506 711 535 686.5 Q564 662 577.5 627.5 Q591 593 591 552 Q591 513 580.5 485 Q570 457 554 438 Q538 419 517 408 Q496 397 473 393 L473 391 Q550 380 587.5 331 Q625 282 625 208 Q625 151 607 111 Q589 71 557 46.5 Q525 22 480.5 11 Q436 0 384 0 L83 0 Z" /><glyph glyph-name="C" unicode="c" d="M606 523 Q585 617 526.5 657 Q468 697 374 697 Q307 697 259 670.5 Q211 644 179.5 599 Q148 554 133.5 495 Q119 436 119 371 Q119 309 131.5 249.5 Q144 190 174 143.5 Q204 97 254 68.5 Q304 40 380 40 Q427 40 466 55.5 Q505 71 534 98 Q563 125 583 162 Q603 199 613 243 L686 243 Q674 189 650.5 141.5 Q627 94 588.5 58.5 Q550 23 495 2 Q440 -19 367 -19 Q282 -19 221.5 12 Q161 43 122.5 96.5 Q84 150 66.5 220 Q49 290 49 369 Q49 474 75 548 Q101 622 147.5 668.5 Q194 715 256 736 Q318 757 392 757 Q449 757 497.5 742 Q546 727 583.5 697.5 Q621 668 645 624.5 Q669 581 678 523 L606 523 Z" /><glyph glyph-name="D" unicode="d" d="M153 59 L319 59 Q367 59 408.5 65 Q450 71 493 93 Q529 112 553 143.5 Q577 175 590.5 212.5 Q604 250 609.5 291 Q615 332 615 370 Q615 410 610 451.5 Q605 493 591 530 Q577 567 552 598.5 Q527 630 488 650 Q456 668 411 673 Q366 678 319 678 L153 678 L153 59 ZM83 0 L83 737 L335 737 Q366 737 395.5 735.5 Q425 734 453.5 728.5 Q482 723 509.5 711.5 Q537 700 562 682 Q599 655 622.5 617 Q646 579 660 536.5 Q674 494 679.5 450.5 Q685 407 685 370 Q685 333 680.5 295 Q676 257 665.5 220.5 Q655 184 638.5 151 Q622 118 596 90 Q570 61 540 44 Q510 27 476.5 17 Q443 7 407.5 3.5 Q372 0 335 0 L83 0 Z" /><glyph glyph-name="E" unicode="e" d="M83 0 L83 737 L573 737 L573 678 L153 678 L153 412 L532 412 L532 352 L153 352 L153 59 L584 59 L584 0 L83 0 Z" /><glyph glyph-name="F" unicode="f" d="M76 0 L76 737 L551 737 L551 678 L145 678 L145 412 L514 412 L514 352 L145 352 L145 0 L76 0 Z" /><glyph glyph-name="G" unicode="g" d="M396 322 L396 381 L712 381 L712 0 L652 0 L652 126 Q633 93 608 66 Q583 39 550 20 Q517 1 474 -9 Q431 -19 377 -19 Q307 -19 247.5 5.5 Q188 30 145 78.5 Q102 127 78 200.5 Q54 274 54 373 Q54 454 74.5 524 Q95 594 137.5 645.5 Q180 697 244 727 Q308 757 395 757 Q454 757 504.5 742.5 Q555 728 595.5 699 Q636 670 663.5 626.5 Q691 583 703 523 L632 523 Q623 564 601 597 Q579 630 548 652 Q517 674 479 685.5 Q441 697 400 697 Q328 697 275.5 671.5 Q223 646 189.5 599.5 Q156 553 140 488 Q124 423 124 345 Q124 284 142 228.5 Q160 173 194 131 Q228 89 278 64.5 Q328 40 391 40 Q421 40 452.5 46.5 Q484 53 514 68.5 Q544 84 569.5 108.5 Q595 133 613 169 Q631 204 637.5 242 Q644 280 645 322 L396 322 Z" /><glyph glyph-name="H" unicode="h" d="M82 0 L82 737 L152 737 L152 421 L588 421 L588 737 L657 737 L657 0 L588 0 L588 361 L152 361 L152 0 L82 0 Z" /><glyph glyph-name="I" unicode="i" d="M108 0 L108 737 L177 737 L177 0 L108 0 Z" /><glyph glyph-name="J" unicode="j" d="M92 233 Q92 199 94.5 165 Q97 131 110 104 Q123 77 150 60.5 Q177 44 225 44 Q297 44 326 85 Q355 126 355 204 L355 737 L425 737 L425 202 Q425 94 375 37.5 Q325 -19 217 -19 Q155 -19 117 2 Q79 23 58 58 Q37 93 30 138.5 Q23 184 23 233 L92 233 Z" /><glyph glyph-name="K" unicode="k" d="M87 0 L87 737 L157 737 L157 355 L535 737 L613 737 L323 443 L665 0 L580 0 L272 400 L157 285 L157 0 L87 0 Z" /><glyph glyph-name="L" unicode="l" d="M83 0 L83 737 L153 737 L153 59 L548 59 L548 0 L83 0 Z" /><glyph glyph-name="M" unicode="m" d="M80 0 L80 737 L186 737 L428 87 L430 87 L668 737 L773 737 L773 0 L703 0 L703 657 L701 657 L460 0 L394 0 L152 657 L150 657 L150 0 L80 0 Z" /><glyph glyph-name="N" unicode="n" d="M153 643 L151 643 L151 0 L81 0 L81 737 L160 737 L586 93 L588 93 L588 737 L657 737 L657 0 L577 0 L153 643 Z" /><glyph glyph-name="O" unicode="o" d="M398 40 Q470 40 521.5 67 Q573 94 606.5 139 Q640 184 656 243.5 Q672 303 672 368 Q672 444 653 505 Q634 566 598 609 Q562 652 511 674.5 Q460 697 396 697 Q326 697 274 669.5 Q222 642 189 596.5 Q156 551 140 491.5 Q124 432 124 368 Q124 302 140 242.5 Q156 183 189 138 Q222 93 274 66.5 Q326 40 398 40 ZM54 368 Q54 449 76 519.5 Q98 590 141 642.5 Q184 695 247.5 726 Q311 757 394 757 Q480 757 545 726.5 Q610 696 653.5 643.5 Q697 591 719 520 Q741 449 741 368 Q741 288 719 217.5 Q697 147 654 94.5 Q611 42 546.5 11.5 Q482 -19 397 -19 Q312 -19 247.5 11.5 Q183 42 140 94.5 Q97 147 75.5 217.5 Q54 288 54 368 Z" /><glyph glyph-name="P" unicode="p" d="M309 385 Q358 385 397 391 Q436 397 463 414 Q490 431 505 460 Q520 489 520 537 Q520 606 474.5 642 Q429 678 330 678 L150 678 L150 385 L309 385 ZM80 0 L80 737 L349 737 Q421 737 467.5 721 Q514 705 541 676 Q568 647 579 609.5 Q590 572 590 531 Q590 470 565 430 Q540 390 500 367 Q460 344 409 335 Q358 326 307 326 L150 326 L150 0 L80 0 Z" /><glyph glyph-name="Q" unicode="q" d="M574 110 Q622 155 644.5 223 Q667 291 667 368 Q667 451 646 512 Q625 573 588 614.5 Q551 656 501 676.5 Q451 697 391 697 Q321 697 269 669.5 Q217 642 184 596 Q151 550 135 490.5 Q119 431 119 368 Q119 302 135 242.5 Q151 183 184 138 Q217 93 269 66.5 Q321 40 393 40 Q432 40 464 48.5 Q496 57 522 73 L438 137 L475 185 L574 110 ZM724 -6 L685 -53 L577 31 Q539 7 493 -6 Q447 -19 392 -19 Q307 -19 242.5 11.5 Q178 42 135 94.5 Q92 147 70.5 217.5 Q49 288 49 368 Q49 444 70 514.5 Q91 585 133 638.5 Q175 692 239 724.5 Q303 757 389 757 Q467 757 531 731.5 Q595 706 640.5 656.5 Q686 607 711 534.5 Q736 462 736 368 Q736 278 708.5 201 Q681 124 626 70 L724 -6 Z" /><glyph glyph-name="R" unicode="r" d="M369 394 Q408 394 441 402.5 Q474 411 498.5 428.5 Q523 446 537.5 474 Q552 502 552 541 Q552 582 537 608.5 Q522 635 497 650.5 Q472 666 440 672 Q408 678 373 678 L152 678 L152 394 L369 394 ZM152 335 L152 0 L82 0 L82 737 L371 737 Q493 737 557.5 691.5 Q622 646 622 544 Q622 474 593.5 433 Q565 392 502 364 Q535 352 553 330.5 Q571 309 580.5 281.5 Q590 254 592.5 223.5 Q595 193 596 164 Q597 122 599.5 94.5 Q602 67 605.5 49.5 Q609 32 614.5 22 Q620 12 627 7 L627 0 L550 0 Q539 18 534 51 Q529 84 526.5 120 Q524 156 522.5 189.5 Q521 223 517 245 Q511 274 497 292 Q483 310 463.5 319.5 Q444 329 420 332 Q396 335 371 335 L152 335 Z" /><glyph glyph-name="S" unicode="s" d="M112 220 Q116 171 134 136.5 Q152 102 180 80.5 Q208 59 245 49.5 Q282 40 324 40 Q373 40 408.5 52.5 Q444 65 466.5 85.5 Q489 106 500 134 Q511 162 511 193 Q511 236 491.5 262.5 Q472 289 441 306 Q410 323 369.5 333 Q329 343 286.5 352.5 Q244 362 203.5 375.5 Q163 389 131.5 411.5 Q100 434 80.5 469.5 Q61 505 61 559 Q61 597 77 633 Q93 669 124.5 696.5 Q156 724 203 740.5 Q250 757 311 757 Q374 757 420.5 739.5 Q467 722 497.5 692 Q528 662 543.5 622 Q559 582 559 537 L493 537 Q493 579 478 609.5 Q463 640 437.5 659.5 Q412 679 379 688 Q346 697 311 697 Q258 697 221.5 682.5 Q185 668 163.5 644.5 Q142 621 134 592 Q126 563 131 535 Q137 499 159.5 477.5 Q182 456 215 442 Q248 428 287.5 419.5 Q327 411 368 401 Q409 391 447 378 Q485 365 515 342 Q545 319 563 284 Q581 249 581 196 Q581 93 510 37 Q439 -19 311 -19 Q254 -19 205 -4.5 Q156 10 120 40.5 Q84 71 64 115.5 Q44 160 44 220 L112 220 Z" /><glyph glyph-name="T" unicode="t" d="M16 737 L553 737 L553 678 L319 678 L319 0 L250 0 L250 678 L16 678 L16 737 Z" /><glyph glyph-name="U" unicode="u" d="M84 737 L154 737 L154 298 Q154 161 205 100.5 Q256 40 370 40 Q429 40 470.5 56 Q512 72 537.5 104 Q563 136 574.5 184 Q586 232 586 298 L586 737 L655 737 L655 278 Q655 133 584 57 Q513 -19 370 -19 Q225 -19 154.5 58.5 Q84 136 84 278 L84 737 Z" /><glyph glyph-name="V" unicode="v" d="M18 737 L91 737 L313 82 L535 737 L607 737 L351 0 L274 0 L18 737 Z" /><glyph glyph-name="W" unicode="w" d="M662 98 L664 98 L824 737 L896 737 L702 0 L626 0 L455 651 L453 651 L282 0 L205 0 L14 737 L84 737 L243 98 L245 98 L416 737 L494 737 L662 98 Z" /><glyph glyph-name="X" unicode="x" d="M311 326 L97 0 L18 0 L272 379 L29 737 L110 737 L311 427 L514 737 L595 737 L353 379 L606 0 L526 0 L311 326 Z" /><glyph glyph-name="Y" unicode="y" d="M309 382 L531 737 L612 737 L345 322 L345 0 L275 0 L275 316 L12 737 L92 737 L309 382 Z" /><glyph glyph-name="Z" unicode="z" d="M32 0 L32 58 L504 678 L72 678 L72 737 L590 737 L590 679 L118 59 L593 59 L593 0 L32 0 Z" /><glyph glyph-name="bracketleft" unicode="[" d="M93 -196 L93 757 L289 757 L289 706 L159 706 L159 -144 L287 -144 L287 -196 L93 -196 Z" /><glyph glyph-name="backslash" unicode="\" d="M-10 757 L47 757 L288 -92 L230 -92 L-10 757 Z" /><glyph glyph-name="bracketright" unicode="]" d="M248 -196 L52 -196 L52 -144 L182 -144 L182 706 L54 706 L54 757 L248 757 L248 -196 Z" /><glyph glyph-name="asciicircum" unicode="^" d="M75 251 L310 715 L364 715 L600 251 L542 251 L336 652 L134 251 L75 251 Z" /><glyph glyph-name="underscore" unicode="_" d="M512 -77 L512 -128 L0 -128 L0 -77 L512 -77 Z" /><glyph glyph-name="quoteleft" unicode="&#x2018;" d="M71 628 Q71 673 92 700 Q113 727 145 737 L145 699 Q133 691 122 677 Q111 663 111 632 L111 597 L145 597 L145 507 L71 507 L71 628 Z" /><glyph glyph-name="a" unicode="a" d="M421 279 Q382 262 342 257 Q302 252 262 249 Q191 244 152 217 Q113 190 113 136 Q113 112 122.5 94 Q132 76 148 64 Q164 52 185 46.5 Q206 41 227 41 Q264 41 299 50 Q334 59 361 78 Q388 97 404.5 126.5 Q421 156 421 196 L421 279 ZM317 309 Q335 311 359 315 Q383 319 398 327 Q414 334 417.5 351 Q421 368 421 382 Q421 429 390.5 459 Q360 489 289 489 Q257 489 230.5 483.5 Q204 478 184 464.5 Q164 451 151 427.5 Q138 404 134 370 L72 370 Q75 417 93.5 450 Q112 483 141 504 Q170 525 208.5 535 Q247 545 290 545 Q330 545 365 536 Q400 527 426.5 508 Q453 489 467.5 457.5 Q482 426 482 380 L482 91 Q482 55 495 45.5 Q508 36 547 50 L547 2 Q540 0 526 -4 Q512 -8 499 -8 Q484 -8 471 -5 Q456 -3 446.5 4.5 Q437 12 431.5 23 Q426 34 424 46.5 Q422 59 422 74 Q383 31 333 8.5 Q283 -14 224 -14 Q189 -14 157 -5 Q125 4 100.5 23.5 Q76 43 61.5 71 Q47 99 47 138 Q47 273 232 298 L317 309 Z" /><glyph glyph-name="b" unicode="b" d="M142 267 Q142 219 154 177.5 Q166 136 188.5 106 Q211 76 245 58.5 Q279 41 322 41 Q360 41 393 55 Q426 69 450.5 95.5 Q475 122 489 160.5 Q503 199 503 249 Q505 299 494.5 342.5 Q484 386 461.5 419 Q439 452 404 470.5 Q369 489 322 489 Q280 489 246.5 471.5 Q213 454 190 423.5 Q167 393 154.5 352.5 Q142 312 142 267 ZM142 0 L81 0 L81 737 L142 737 L142 445 Q172 495 223.5 520 Q275 545 332 545 Q392 545 436.5 522 Q481 499 510.5 460.5 Q540 422 554 370.5 Q568 319 568 264 Q568 206 555 154.5 Q542 103 512.5 66 Q483 29 438 7.5 Q393 -14 329 -14 Q303 -14 276.5 -7 Q250 0 225 13.5 Q200 27 179 47 Q158 67 144 93 L142 93 L142 0 Z" /><glyph glyph-name="c" unicode="c" d="M450 364 Q433 423 393 456 Q353 489 292 489 Q245 489 211 470 Q177 451 155.5 418.5 Q134 386 124 345.5 Q114 305 114 264 Q114 222 123.5 182 Q133 142 154.5 110.5 Q176 79 210 60 Q244 41 292 41 Q360 41 401.5 79 Q443 117 455 183 L520 183 Q512 139 494 103 Q476 67 448 40.5 Q420 14 381 0 Q342 -14 292 -14 Q228 -14 182 7.5 Q136 29 106.5 66 Q77 103 62.5 154.5 Q48 206 48 264 Q48 319 64 370 Q80 421 110.5 460 Q141 499 186.5 522 Q232 545 292 545 Q384 545 441 501 Q498 457 512 364 L450 364 Z" /><glyph glyph-name="d" unicode="d" d="M483 267 Q483 312 471 352.5 Q459 393 436 423.5 Q413 454 379.5 471.5 Q346 489 304 489 Q256 489 221 470.5 Q186 452 163.5 419 Q141 386 131 342.5 Q121 299 123 249 Q123 199 137 160.5 Q151 122 175.5 95.5 Q200 69 232.5 55 Q265 41 304 41 Q347 41 381 58.5 Q415 76 437.5 106 Q460 136 471.5 177.5 Q483 219 483 267 ZM483 737 L545 737 L545 0 L483 0 L483 93 L481 93 Q468 67 447 47 Q426 27 401 13.5 Q376 0 349.5 -7 Q323 -14 297 -14 Q232 -14 187 7.5 Q142 29 113 66 Q84 103 70.5 154.5 Q57 206 57 264 Q57 319 71.5 370.5 Q86 422 115 460.5 Q144 499 188.5 522 Q233 545 294 545 Q350 545 402 520 Q454 495 483 445 L483 737 Z" /><glyph glyph-name="e" unicode="e" d="M458 302 Q458 341 447 375.5 Q436 410 415 435 Q394 460 362.5 474.5 Q331 489 290 489 Q249 489 217.5 474 Q186 459 164 433.5 Q142 408 129 374 Q116 340 112 302 L458 302 ZM112 251 Q112 208 123 169.5 Q134 131 156 103 Q178 75 212 58 Q246 41 290 41 Q350 41 393 72.5 Q436 104 451 163 L519 163 Q508 125 489.5 92.5 Q471 60 443.5 36 Q416 12 378 -1 Q340 -14 290 -14 Q226 -14 180 7.5 Q134 29 104.5 66 Q75 103 60.5 154 Q46 205 46 263 Q46 322 63 373 Q80 424 111 462.5 Q142 501 187 523 Q232 545 290 545 Q399 545 461.5 469.5 Q524 394 523 251 L112 251 Z" /><glyph glyph-name="f" unicode="f" d="M20 479 L20 530 L99 530 L99 614 Q99 678 125 715 Q151 752 212 752 Q226 752 238.5 751 Q251 750 263 748 L263 691 Q243 696 226 696 Q203 696 189.5 687.5 Q176 679 170 664.5 Q164 650 162.5 632 Q161 614 161 596 L161 530 L263 530 L263 479 L161 479 L161 0 L99 0 L99 479 L20 479 Z" /><glyph glyph-name="g" unicode="g" d="M483 263 Q483 311 471.5 352.5 Q460 394 437.5 424.5 Q415 455 381 472 Q347 489 304 489 Q265 489 232.5 475.5 Q200 462 175.5 435.5 Q151 409 137 370.5 Q123 332 123 282 Q121 231 131 187.5 Q141 144 163.5 111.5 Q186 79 221 60 Q256 41 304 41 Q346 41 379.5 59 Q413 77 436 107 Q459 137 471 177.5 Q483 218 483 263 ZM483 530 L545 530 L545 51 Q545 -2 534 -50.5 Q523 -99 495.5 -136 Q468 -173 420 -195 Q372 -217 296 -217 Q238 -217 196 -202 Q154 -187 127 -164.5 Q100 -142 86.5 -115 Q73 -88 72 -65 L137 -65 Q144 -94 159.5 -113 Q175 -132 196 -143 Q217 -154 242.5 -158 Q268 -162 296 -162 Q358 -162 396 -140.5 Q434 -119 453.5 -84 Q473 -49 478.5 -5 Q484 39 483 85 Q454 36 402 11 Q350 -14 294 -14 Q233 -14 188.5 9 Q144 32 115 70.5 Q86 109 71.5 160 Q57 211 57 266 Q57 325 70.5 376 Q84 427 113 464.5 Q142 502 187 523.5 Q232 545 297 545 Q323 545 349.5 537.5 Q376 530 401 517 Q426 504 447 483.5 Q468 463 481 437 L483 437 L483 530 Z" /><glyph glyph-name="h" unicode="h" d="M74 0 L74 737 L135 737 L135 457 Q172 496 211.5 520.5 Q251 545 306 545 Q355 545 397 528 Q439 511 468 469 Q487 440 491 410 Q495 380 495 347 L495 0 L433 0 L433 346 Q433 418 401.5 453.5 Q370 489 296 489 Q267 489 243.5 480.5 Q220 472 201 457.5 Q182 443 169 425 Q156 407 148 386 Q139 360 137 336.5 Q135 313 135 286 L135 0 L74 0 Z" /><glyph glyph-name="i" unicode="i" d="M80 646 L80 737 L147 737 L147 646 L80 646 ZM83 0 L83 530 L144 530 L144 0 L83 0 Z" /><glyph glyph-name="j" unicode="j" d="M155 646 L87 646 L87 737 L155 737 L155 646 ZM152 530 L152 -71 Q152 -104 148.5 -130 Q145 -156 134.5 -173.5 Q124 -191 103 -200 Q82 -209 45 -209 Q23 -209 5 -205 L5 -151 Q32 -154 48.5 -151 Q65 -148 74 -139 Q83 -130 86.5 -114.5 Q90 -99 90 -79 L90 530 L152 530 Z" /><glyph glyph-name="k" unicode="k" d="M70 0 L70 737 L131 737 L131 279 L391 530 L475 530 L276 339 L499 0 L430 0 L231 296 L131 201 L131 0 L70 0 Z" /><glyph glyph-name="l" unicode="l" d="M83 0 L83 737 L144 737 L144 0 L83 0 Z" /><glyph glyph-name="m" unicode="m" d="M127 0 L66 0 L66 530 L127 530 L127 451 L129 451 Q153 497 197 521 Q241 545 293 545 Q330 545 355.5 536.5 Q381 528 399 514.5 Q417 501 428.5 482.5 Q440 464 449 442 Q475 495 519.5 520 Q564 545 622 545 Q676 545 708 527 Q740 509 757.5 480 Q775 451 780.5 413 Q786 375 786 335 L786 0 L725 0 L725 367 Q725 424 701 456.5 Q677 489 611 489 Q578 489 546.5 474.5 Q515 460 492 429 Q481 416 474.5 398 Q468 380 464 360.5 Q460 341 458.5 321.5 Q457 302 457 286 L457 0 L395 0 L395 367 Q395 424 371 456.5 Q347 489 282 489 Q248 489 216.5 474.5 Q185 460 162 429 Q152 416 145 398 Q138 380 134 360.5 Q130 341 128.5 321.5 Q127 302 127 286 L127 0 Z" /><glyph glyph-name="n" unicode="n" d="M135 0 L74 0 L74 530 L135 530 L135 457 Q172 496 211.5 520.5 Q251 545 306 545 Q355 545 397 528 Q439 511 468 469 Q487 440 491 410 Q495 380 495 347 L495 0 L433 0 L433 346 Q433 418 401.5 453.5 Q370 489 296 489 Q267 489 243.5 480.5 Q220 472 201 457.5 Q182 443 169 425 Q156 407 148 386 Q139 360 137 336.5 Q135 313 135 286 L135 0 Z" /><glyph glyph-name="o" unicode="o" d="M465 265 Q465 312 454.5 353 Q444 394 422.5 424.5 Q401 455 367.5 472 Q334 489 285 489 Q237 489 202.5 470.5 Q168 452 146.5 420.5 Q125 389 114.5 348.5 Q104 308 104 265 Q104 216 116 174.5 Q128 133 150.5 103.5 Q173 74 207 57.5 Q241 41 285 41 Q333 41 367 60 Q401 79 422.5 110.5 Q444 142 454.5 182 Q465 222 465 265 ZM285 -14 Q233 -13 188.5 4.5 Q144 22 111 56.5 Q78 91 58.5 143.5 Q39 196 39 265 Q39 324 54.5 374.5 Q70 425 100.5 463 Q131 501 177 523 Q223 545 285 545 Q347 545 393 523 Q439 501 470 463.5 Q501 426 515.5 375 Q530 324 530 265 Q530 202 513 150.5 Q496 99 463.5 62.5 Q431 26 385.5 6 Q340 -14 285 -14 Z" /><glyph glyph-name="p" unicode="p" d="M142 263 Q142 218 154.5 177.5 Q167 137 190 107 Q213 77 246.5 59 Q280 41 322 41 Q369 41 404 60 Q439 79 461.5 111.5 Q484 144 494.5 187.5 Q505 231 503 282 Q503 332 489 370.5 Q475 409 450.5 435.5 Q426 462 393 475.5 Q360 489 322 489 Q279 489 245 472 Q211 455 188.5 424.5 Q166 394 154 352.5 Q142 311 142 263 ZM142 -209 L81 -209 L81 530 L142 530 L142 437 L144 437 Q158 463 179 483.5 Q200 504 225 517 Q250 530 276.5 537.5 Q303 545 329 545 Q393 545 438 523.5 Q483 502 512.5 464.5 Q542 427 555 376 Q568 325 568 266 Q568 211 554 160 Q540 109 510.5 70.5 Q481 32 436.5 9 Q392 -14 332 -14 Q275 -14 223.5 11 Q172 36 142 85 L142 -209 Z" /><glyph glyph-name="q" unicode="q" d="M483 267 Q483 312 471 352.5 Q459 393 436 423.5 Q413 454 379.5 471.5 Q346 489 304 489 Q256 489 221 470.5 Q186 452 163.5 419 Q141 386 131 342.5 Q121 299 123 249 Q123 199 137 160.5 Q151 122 175.5 95.5 Q200 69 232.5 55 Q265 41 304 41 Q347 41 381 58.5 Q415 76 437.5 106 Q460 136 471.5 177.5 Q483 219 483 267 ZM483 530 L545 530 L545 -209 L483 -209 L483 85 Q454 36 402 11 Q350 -14 294 -14 Q233 -14 188.5 9 Q144 32 115 70.5 Q86 109 71.5 160 Q57 211 57 266 Q57 325 70.5 376 Q84 427 113 464.5 Q142 502 187 523.5 Q232 545 297 545 Q323 545 349.5 537.5 Q376 530 401 517 Q426 504 447 483.5 Q468 463 481 437 L483 437 L483 530 Z" /><glyph glyph-name="r" unicode="r" d="M138 0 L77 0 L77 530 L138 530 L138 431 L140 431 Q166 495 206.5 520 Q247 545 313 545 L313 478 Q261 479 227.5 461.5 Q194 444 174 414.5 Q154 385 146 344.5 Q138 304 138 260 L138 0 Z" /><glyph glyph-name="s" unicode="s" d="M110 166 Q124 97 161.5 69 Q199 41 268 41 Q302 41 326.5 49 Q351 57 367 71 Q383 85 391 102.5 Q399 120 399 139 Q399 178 374 197 Q349 216 311 227 Q273 238 229 245.5 Q185 253 147.5 268.5 Q110 284 84.5 312.5 Q59 341 59 393 Q59 460 108 502.5 Q157 545 246 545 Q332 545 385.5 506.5 Q439 468 451 378 L388 378 Q380 439 341.5 464 Q303 489 245 489 Q186 489 155.5 464 Q125 439 125 398 Q125 362 150 343.5 Q175 325 213 313 Q251 301 295 292 Q339 283 377 266 Q415 249 440 220 Q465 191 465 140 Q465 102 448.5 73 Q432 44 403.5 24.5 Q375 5 335.5 -4.5 Q296 -14 249 -14 Q202 -14 165.5 -0.5 Q129 13 103.5 37.5 Q78 62 63.5 95 Q49 128 47 166 L110 166 Z" /><glyph glyph-name="t" unicode="t" d="M260 -2 Q249 -4 230.5 -9 Q212 -14 189 -14 Q143 -14 119 9 Q95 32 95 91 L95 479 L20 479 L20 530 L95 530 L95 678 L157 678 L157 530 L256 530 L256 479 L157 479 L157 116 Q157 96 158 82 Q159 68 164 58.5 Q169 49 179.5 45 Q190 41 210 41 Q222 41 235 43 Q248 45 260 48 L260 -2 Z" /><glyph glyph-name="u" unicode="u" d="M433 530 L495 530 L495 0 L433 0 L433 74 Q421 59 405.5 44 Q390 29 370 16 Q350 3 323.5 -5.5 Q297 -14 262 -14 Q209 -14 173 0.5 Q137 15 115 42 Q93 69 83.5 104 Q74 139 74 181 L74 530 L135 530 L135 182 Q135 114 167 77.5 Q199 41 271 41 Q309 41 339.5 56 Q370 71 390.5 97.5 Q411 124 422 161 Q433 198 433 242 L433 530 Z" /><glyph glyph-name="v" unicode="v" d="M17 530 L84 530 L256 76 L428 530 L495 530 L289 0 L220 0 L17 530 Z" /><glyph glyph-name="w" unicode="w" d="M522 82 L662 530 L724 530 L552 0 L486 0 L371 445 L369 445 L251 0 L177 0 L15 530 L77 530 L214 78 L337 530 L406 530 L522 82 Z" /><glyph glyph-name="x" unicode="x" d="M258 229 L93 0 L18 0 L222 274 L35 530 L111 530 L257 319 L408 530 L485 530 L294 274 L493 0 L419 0 L258 229 Z" /><glyph glyph-name="y" unicode="y" d="M70 -144 Q82 -146 95 -148.5 Q108 -151 121 -151 Q146 -151 162.5 -134.5 Q179 -118 190 -95 Q201 -72 208 -47 Q215 -22 224 -4 L18 530 L87 530 L257 75 L427 530 L494 530 L296 7 Q278 -43 261 -83 Q244 -123 225 -151 Q206 -179 183 -194 Q160 -209 128 -209 Q112 -209 97 -207 Q82 -205 70 -202 L70 -144 Z" /><glyph glyph-name="z" unicode="z" d="M34 0 L34 54 L386 479 L57 479 L57 530 L465 530 L465 476 L113 51 L478 51 L478 0 L34 0 Z" /><glyph glyph-name="braceleft" unicode="{" d="M130 591 Q130 636 136.5 667.5 Q143 699 160 719 Q177 739 205.5 747.5 Q234 756 279 755 Q196 726 196 631 L196 434 Q196 404 192.5 379.5 Q189 355 180 335.5 Q171 316 154.5 302.5 Q138 289 112 282 L112 280 Q162 268 179 233.5 Q196 199 196 141 L196 -70 Q196 -122 216.5 -150.5 Q237 -179 286 -194 L286 -196 Q241 -197 210.5 -188.5 Q180 -180 162 -161.5 Q144 -143 137 -115 Q130 -87 130 -48 L130 161 Q130 208 114 238.5 Q98 269 46 280 L46 282 Q75 290 91.5 300.5 Q108 311 116.5 325.5 Q125 340 127.5 359.5 Q130 379 130 404 L130 591 Z" /><glyph glyph-name="bar" unicode="|" d="M144 768 L144 -256 L83 -256 L83 768 L144 768 Z" /><glyph glyph-name="braceright" unicode="}" d="M208 404 Q208 357 224 326.5 Q240 296 292 286 L292 284 Q263 275 246.5 264.5 Q230 254 221.5 239.5 Q213 225 210.5 205.5 Q208 186 208 161 L208 -26 Q208 -71 201.5 -102.5 Q195 -134 178 -154 Q161 -174 132 -182.5 Q103 -191 59 -189 Q142 -161 142 -66 L142 131 Q142 161 145 185.5 Q148 210 157.5 229.5 Q167 249 183.5 262.5 Q200 276 226 284 L226 286 Q201 292 184.5 303 Q168 314 159 331.5 Q150 349 146 372 Q142 395 142 424 L142 635 Q142 687 121.5 715.5 Q101 744 52 759 L52 761 Q97 762 127.5 753.5 Q158 745 176 727 Q194 709 201 680.5 Q208 652 208 613 L208 404 Z" /><glyph glyph-name="asciitilde" unicode="~" d="M226 332 Q254 332 285 320.5 Q316 309 346 295 Q377 281 404 269.5 Q431 258 452 258 Q469 258 484.5 266.5 Q500 275 512.5 288.5 Q525 302 535.5 317.5 Q546 333 553 347 L594 312 Q583 292 569 272 Q555 252 537 236 Q519 220 497.5 210.5 Q476 201 451 201 Q436 201 417.5 205.5 Q399 210 380 216.5 Q361 223 343.5 231 Q326 239 312 244 Q292 252 270.5 263 Q249 274 226 274 Q206 274 189.5 265 Q173 256 159.5 241.5 Q146 227 135.5 210.5 Q125 194 116 178 L82 226 Q93 243 107 261.5 Q121 280 138.5 295.5 Q156 311 177.5 321.5 Q199 332 226 332 Z" /><glyph glyph-name="exclamdown" unicode="¡" d="M133 456 L133 545 L208 545 L208 456 L133 456 ZM194 360 L208 38 L208 -191 L133 -191 L133 38 L147 360 L194 360 Z" /><glyph glyph-name="cent" unicode="¢" d="M332 484 Q322 487 311.5 488 Q301 489 290 489 Q243 489 209 470 Q175 451 153.5 418.5 Q132 386 122 345.5 Q112 305 112 264 Q112 206 132 152 Q152 98 196 70 L332 484 ZM238 48 Q250 45 262.5 43 Q275 41 290 41 Q358 41 399.5 79 Q441 117 453 183 L518 183 Q512 143 494.5 107.5 Q477 72 448.5 44.5 Q420 17 380 1.5 Q340 -14 290 -14 Q270 -14 253.5 -12 Q237 -10 220 -6 L174 -144 L126 -144 L176 9 Q109 42 77.5 109.5 Q46 177 46 264 Q46 332 64.5 384 Q83 436 115.5 472 Q148 508 193 526.5 Q238 545 290 545 Q306 545 321 543.5 Q336 542 350 540 L391 663 L440 663 L395 525 Q492 484 510 364 L447 364 Q429 434 376 467 L238 48 Z" /><glyph glyph-name="sterling" unicode="£" d="M358 374 L358 331 L204 331 Q209 314 212 296.5 Q215 279 215 261 Q215 232 207 205.5 Q199 179 185 155 Q171 131 153 109.5 Q135 88 117 69 L119 67 Q138 77 161.5 85.5 Q185 94 210 94 Q245 94 268.5 87.5 Q292 81 312 73 Q333 65 352.5 58 Q372 51 397 51 Q433 51 458.5 68.5 Q484 86 508 110 L543 57 Q520 37 500.5 23 Q481 9 461 1 Q441 -7 418 -10.5 Q395 -14 365 -14 Q346 -14 326 -7 Q306 0 284 8 Q261 16 236.5 23.5 Q212 31 183 31 Q154 31 127.5 19.5 Q101 8 76 -3 L40 56 Q85 89 116.5 136 Q148 183 148 241 Q148 288 127 331 L26 331 L26 374 L109 374 Q102 388 92.5 403.5 Q83 419 75 438 Q67 457 60.5 480.5 Q54 504 54 535 Q54 574 68.5 608.5 Q83 643 111.5 668 Q140 693 182.5 707.5 Q225 722 283 722 Q333 722 376 706.5 Q419 691 450 662.5 Q481 634 498.5 592.5 Q516 551 515 500 L447 500 Q444 581 400.5 624 Q357 667 284 667 Q253 667 223.5 658.5 Q194 650 170.5 633 Q147 616 133.5 590.5 Q120 565 120 531 Q120 508 126.5 488 Q133 468 143.5 449 Q154 430 166 411.5 Q178 393 188 374 L358 374 Z" /><glyph glyph-name="fraction" unicode="&#x2044;&#x2215;" d="M-168 -14 L287 722 L339 722 L-116 -14 L-168 -14 Z" /><glyph glyph-name="yen" unicode="¥" d="M284 382 L490 737 L565 737 L390 444 L504 444 L504 389 L356 389 L317 322 L317 279 L504 279 L504 223 L317 223 L317 0 L252 0 L252 223 L66 223 L66 279 L252 279 L252 322 L213 389 L66 389 L66 444 L179 444 L4 737 L82 737 L284 382 Z" /><glyph glyph-name="florin" unicode="&#x192;" d="M531 681 Q515 690 498 694 Q489 696 478 696 Q467 696 453 693 Q423 688 406 663.5 Q389 639 379 605 Q369 571 362 532 Q355 493 346 459 L464 459 L464 410 L338 410 L272 66 Q261 11 246.5 -37 Q232 -85 209 -121.5 Q186 -158 152.5 -179.5 Q119 -201 70 -201 Q55 -201 41 -198 Q27 -195 13 -189 L33 -131 Q48 -140 58.5 -142 Q69 -144 86 -144 Q117 -144 138.5 -118 Q160 -92 178 -42 Q196 8 210.5 80 Q225 152 242 244 L271 410 L156 410 L156 459 L280 459 Q290 502 301 552.5 Q312 603 332.5 647.5 Q353 692 388 722 Q423 752 480 752 Q501 752 518 746.5 Q535 741 552 731 L531 681 Z" /><glyph glyph-name="section" unicode="§" d="M195 458 Q154 440 129 414.5 Q104 389 104 351 Q104 332 112.5 315.5 Q121 299 133 285 Q145 271 160.5 259.5 Q176 248 191 238 L374 120 Q390 129 406.5 140.5 Q423 152 436.5 166 Q450 180 457.5 197 Q465 214 465 236 Q465 256 456 273 Q447 290 433.5 303.5 Q420 317 403.5 328.5 Q387 340 372 349 L195 458 ZM154 188 Q104 219 76.5 255 Q49 291 49 343 Q49 395 81 433 Q113 471 159 490 Q135 517 119.5 543.5 Q104 570 104 608 Q104 638 116 665 Q128 692 151.5 712.5 Q175 733 210 745 Q245 757 290 757 Q376 757 422 707.5 Q468 658 467 573 L412 573 Q410 638 380 669.5 Q350 701 285 701 Q236 701 203 677 Q170 653 170 602 Q170 567 196 539.5 Q222 512 261 487 Q300 462 345 438 Q390 414 429 386 Q468 358 494 324 Q520 290 520 246 Q520 216 511 193 Q502 170 486.5 151 Q471 132 450.5 116.5 Q430 101 408 86 Q413 81 423 71 Q433 61 443 47.5 Q453 34 460 15 Q467 -4 467 -27 Q467 -66 452.5 -95.5 Q438 -125 413.5 -145 Q389 -165 356.5 -175 Q324 -185 287 -185 Q200 -185 150 -135 Q100 -85 96 1 L159 1 Q159 -62 191 -96 Q223 -130 288 -130 Q309 -130 329.5 -124 Q350 -118 366 -105.5 Q382 -93 391.5 -75 Q401 -57 401 -34 Q401 -9 390.5 11 Q380 31 363 48 Q346 65 326 78.5 Q306 92 288 104 L154 188 Z" /><glyph glyph-name="currency" unicode="¤" d="M289 493 Q249 494 214 480 Q179 466 154 441 Q129 416 114.5 381.5 Q100 347 101 307 Q100 270 114.5 237 Q129 204 154 179 Q179 154 212.5 139 Q246 124 283 124 Q321 124 355 138.5 Q389 153 414 178 Q439 203 454 237 Q469 271 469 310 Q469 347 454.5 380.5 Q440 414 415.5 439 Q391 464 358.5 479 Q326 494 289 493 ZM77 156 Q52 191 40 227 Q28 263 28 307 Q28 353 39 389 Q50 425 77 462 L33 506 L86 560 L131 516 Q166 543 206 554.5 Q246 566 289 566 Q332 566 367.5 553 Q403 540 438 516 L483 560 L537 506 L493 462 Q519 424 530.5 386.5 Q542 349 542 302 Q542 259 529 225 Q516 191 493 156 L537 113 L483 58 L438 102 Q369 51 280 51 Q237 51 201 65 Q165 79 131 102 L86 58 L33 113 L77 156 Z" /><glyph glyph-name="quotesingle" unicode="&#39;" d="M87 737 L140 737 L140 506 L87 506 L87 737 Z" /><glyph glyph-name="quotedblleft" unicode="&#x201c;" d="M88 628 Q88 673 109 700 Q130 727 163 737 L163 699 Q151 691 139.5 677 Q128 663 128 632 L128 597 L163 597 L163 507 L88 507 L88 628 ZM243 628 Q243 673 264 700 Q285 727 317 737 L317 699 Q305 691 294 677 Q283 663 283 632 L283 597 L317 597 L317 507 L243 507 L243 628 Z" /><glyph glyph-name="guillemotleft" unicode="«" d="M116 298 L265 414 L265 349 L159 265 L265 183 L265 120 L116 233 L116 298 ZM304 298 L454 414 L454 349 L347 265 L454 183 L454 120 L304 233 L304 298 Z" /><glyph glyph-name="guilsinglleft" unicode="&#x2039;" d="M124 298 L273 414 L273 349 L167 265 L273 183 L273 120 L124 233 L124 298 Z" /><glyph glyph-name="guilsinglright" unicode="&#x203a;" d="M274 236 L125 120 L125 184 L231 268 L125 350 L125 414 L274 300 L274 236 Z" /><glyph glyph-name="fi" unicode="&#xfb01;" d="M445 646 L378 646 L378 737 L445 737 L445 646 ZM381 0 L381 530 L442 530 L442 0 L381 0 ZM13 479 L13 530 L94 530 L94 614 Q94 678 119.5 715 Q145 752 207 752 Q221 752 233.5 751 Q246 750 258 748 L258 691 Q238 696 221 696 Q198 696 184.5 687.5 Q171 679 165 664.5 Q159 650 157.5 632 Q156 614 156 596 L156 530 L256 530 L256 479 L156 479 L156 0 L94 0 L94 479 L13 479 Z" /><glyph glyph-name="fl" unicode="&#xfb02;" d="M381 0 L381 737 L442 737 L442 0 L381 0 ZM13 479 L13 530 L94 530 L94 614 Q94 678 119.5 715 Q145 752 207 752 Q221 752 233.5 751 Q246 750 258 748 L258 691 Q238 696 221 696 Q198 696 184.5 687.5 Q171 679 165 664.5 Q159 650 157.5 632 Q156 614 156 596 L156 530 L256 530 L256 479 L156 479 L156 0 L94 0 L94 479 L13 479 Z" /><glyph glyph-name="endash" unicode="&#x2013;" d="M512 244 L0 244 L0 289 L512 289 L512 244 Z" /><glyph glyph-name="dagger" unicode="&#x2020;" d="M254 446 L38 446 L38 502 L254 502 L254 737 L315 737 L315 502 L531 502 L531 446 L315 446 L315 -170 L254 -170 L254 446 Z" /><glyph glyph-name="daggerdbl" unicode="&#x2021;" d="M254 454 L38 454 L38 509 L254 509 L254 737 L315 737 L315 509 L531 509 L531 454 L315 454 L315 112 L531 112 L531 56 L315 56 L315 -170 L254 -170 L254 56 L38 56 L38 112 L254 112 L254 454 Z" /><glyph glyph-name="periodcentered" unicode="·&#x2219;" d="M142 408 Q163 408 177 393.5 Q191 379 191 358 Q191 338 177 323 Q163 308 142 308 Q122 308 107 323 Q92 338 92 358 Q92 379 107.5 393.5 Q123 408 142 408 Z" /><glyph glyph-name="paragraph" unicode="¶" d="M264 344 Q225 344 189.5 359.5 Q154 375 126.5 401.5 Q99 428 83.5 463.5 Q68 499 68 539 Q68 635 127.5 686 Q187 737 296 737 L518 737 L518 -150 L457 -150 L457 669 L326 669 L326 -150 L264 -150 L264 344 Z" /><glyph glyph-name="bullet" unicode="&#x2022;" d="M440 368 Q440 330 426 296.5 Q412 263 386 238 Q360 213 326.5 198.5 Q293 184 255 184 Q217 184 184 198.5 Q151 213 125.5 238 Q100 263 86 296.5 Q72 330 72 368 Q72 406 86 439.5 Q100 473 125.5 498.5 Q151 524 184 538.5 Q217 553 255 553 Q293 553 326.5 538.5 Q360 524 386 498.5 Q412 473 426 439.5 Q440 406 440 368 Z" /><glyph glyph-name="quotesinglbase" unicode="&#x201a;" d="M157 -31 Q157 -76 136 -103 Q115 -130 82 -140 L82 -102 Q94 -94 105.5 -80 Q117 -66 117 -35 L117 0 L82 0 L82 90 L157 90 L157 -31 Z" /><glyph glyph-name="quotedblbase" unicode="&#x201e;" d="M156 -31 Q156 -76 135 -103 Q114 -130 81 -140 L81 -102 Q93 -94 104.5 -80 Q116 -66 116 -35 L116 0 L81 0 L81 90 L156 90 L156 -31 ZM310 -31 Q310 -76 289 -103 Q268 -130 236 -140 L236 -102 Q248 -94 259 -80 Q270 -66 270 -35 L270 0 L236 0 L236 90 L310 90 L310 -31 Z" /><glyph glyph-name="quotedblright" unicode="&#x201d;" d="M156 616 Q156 571 135 544 Q114 517 81 507 L81 545 Q93 553 104.5 567.5 Q116 582 116 612 L116 647 L81 647 L81 737 L156 737 L156 616 ZM310 616 Q310 571 289 544 Q268 517 236 507 L236 545 Q248 553 259 567.5 Q270 582 270 612 L270 647 L236 647 L236 737 L310 737 L310 616 Z" /><glyph glyph-name="guillemotright" unicode="»" d="M265 236 L116 120 L116 184 L222 268 L116 350 L116 414 L265 300 L265 236 ZM454 236 L304 120 L304 184 L411 268 L304 350 L304 414 L454 300 L454 236 Z" /><glyph glyph-name="ellipsis" unicode="&#x2026;" d="M475 0 L475 90 L550 90 L550 0 L475 0 ZM816 0 L816 90 L891 90 L891 0 L816 0 ZM134 0 L134 90 L209 90 L209 0 L134 0 Z" /><glyph glyph-name="perthousand" unicode="&#x2030;" d="M856 58 Q874 58 891 66 Q908 74 921.5 87 Q935 100 942.5 117 Q950 134 950 153 Q950 171 942.5 188.5 Q935 206 922 219 Q909 232 891.5 240 Q874 248 856 248 Q837 248 819.5 240 Q802 232 789 219 Q776 206 768.5 189 Q761 172 761 153 Q761 134 768.5 116.5 Q776 99 789.5 86.5 Q803 74 820.5 66 Q838 58 856 58 ZM484 58 Q503 58 520.5 66 Q538 74 550.5 86.5 Q563 99 571.5 116.5 Q580 134 580 153 Q580 171 572 188.5 Q564 206 551 219 Q538 232 521 240 Q504 248 484 248 Q465 248 448 240 Q431 232 418.5 219 Q406 206 398 188.5 Q390 171 390 153 Q390 134 398 116.5 Q406 99 419 86.5 Q432 74 449 66 Q466 58 484 58 ZM167 656 Q147 656 130.5 648.5 Q114 641 101 628 Q88 615 80.5 598 Q73 581 73 562 Q73 544 80.5 526.5 Q88 509 101 495.5 Q114 482 131 474.5 Q148 467 167 467 Q185 467 202.5 474.5 Q220 482 233.5 495.5 Q247 509 254.5 526.5 Q262 544 262 562 Q262 581 254.5 598 Q247 615 233.5 628 Q220 641 202.5 648.5 Q185 656 167 656 ZM88 -14 L505 722 L559 722 L142 -14 L88 -14 ZM856 306 Q888 306 915.5 294 Q943 282 963.5 261 Q984 240 996.5 211.5 Q1009 183 1009 153 Q1009 121 996.5 93.5 Q984 66 963.5 45 Q943 24 915.5 12 Q888 0 856 0 Q824 0 796.5 12 Q769 24 748 45 Q727 66 714.5 93.5 Q702 121 702 153 Q702 183 714.5 211.5 Q727 240 748 261 Q769 282 797 294 Q825 306 856 306 ZM167 715 Q198 715 226 702.5 Q254 690 275 669.5 Q296 649 308.5 621.5 Q321 594 321 562 Q321 530 308.5 502 Q296 474 275 453.5 Q254 433 226.5 421 Q199 409 167 409 Q135 409 107.5 421 Q80 433 59 454 Q38 475 26 503 Q14 531 14 562 Q14 593 26.5 621 Q39 649 59.5 669.5 Q80 690 108 702.5 Q136 715 167 715 ZM484 306 Q515 306 543 294 Q571 282 592 261 Q613 240 625.5 212 Q638 184 638 153 Q638 121 625.5 93.5 Q613 66 592 45 Q571 24 543.5 12 Q516 0 484 0 Q453 0 425 12.5 Q397 25 376 45.5 Q355 66 343.5 94 Q332 122 332 153 Q332 183 344 211.5 Q356 240 376.5 261 Q397 282 425.5 294 Q454 306 484 306 Z" /><glyph glyph-name="questiondown" unicode="¿" d="M297 545 L297 455 L222 455 L222 545 L297 545 ZM473 16 Q477 -35 461.5 -77 Q446 -119 416 -149 Q386 -179 344 -195.5 Q302 -212 252 -212 Q200 -212 158.5 -198 Q117 -184 88 -159 Q59 -134 44 -98 Q29 -62 29 -19 Q29 25 49 57.5 Q69 90 97 117.5 Q125 145 156 173 Q187 201 210 237 Q227 263 229 295.5 Q231 328 231 358 L291 358 Q292 302 283 256 Q274 210 234 168 Q212 144 187.5 121.5 Q163 99 142 76 Q121 53 107.5 28.5 Q94 4 94 -25 Q94 -52 105 -76 Q116 -100 136.5 -118 Q157 -136 186.5 -146.5 Q216 -157 254 -157 Q292 -157 321.5 -143.5 Q351 -130 371 -106.5 Q391 -83 401.5 -51.5 Q412 -20 411 16 L473 16 Z" /><glyph glyph-name="grave" unicode="`" d="M46 730 L126 730 L240 588 L187 588 L46 730 Z" /><glyph glyph-name="acute" unicode="´" d="M112 588 L225 730 L304 730 L164 588 L112 588 Z" /><glyph glyph-name="circumflex" unicode="&#x2c6;" d="M91 588 L25 588 L141 730 L210 730 L326 588 L259 588 L175 692 L91 588 Z" /><glyph glyph-name="tilde" unicode="&#x2dc;" d="M16 600 Q18 618 23.5 633 Q29 648 37 660 Q52 682 76 692.5 Q100 703 127 697 Q141 694 157.5 687 Q174 680 191 672.5 Q208 665 224 659 Q240 653 253 653 Q275 653 284.5 669.5 Q294 686 298 705 L337 705 Q336 694 333.5 684.5 Q331 675 329 666 Q317 641 300 622.5 Q283 604 253 604 Q231 604 212.5 611 Q194 618 175.5 627 Q157 636 139 643 Q121 650 103 650 Q80 650 69.5 635 Q59 620 53 600 L16 600 Z" /><glyph glyph-name="macron" unicode="¯&#x2c9;" d="M24 673 L327 673 L327 627 L24 627 L24 673 Z" /><glyph glyph-name="breve" unicode="&#x2d8;" d="M69 723 Q77 680 105 660 Q133 640 176 640 Q219 640 246.5 660 Q274 680 286 723 L324 723 Q316 658 275 626 Q234 594 171 594 Q110 594 72 628 Q34 662 29 723 L69 723 Z" /><glyph glyph-name="dotaccent" unicode="&#x2d9;" d="M137 702 L204 702 L204 598 L137 598 L137 702 Z" /><glyph glyph-name="dieresis" unicode="¨" d="M224 702 L291 702 L291 598 L224 598 L224 702 ZM61 702 L128 702 L128 598 L61 598 L61 702 Z" /><glyph glyph-name="ring" unicode="&#x2da;" d="M171 626 Q198 626 218.5 646.5 Q239 667 239 693 Q239 720 219 741 Q199 762 171 762 Q143 762 122.5 741.5 Q102 721 102 693 Q102 666 123 646 Q144 626 171 626 ZM171 592 Q151 592 132 600 Q113 608 99 622 Q85 636 77 654.5 Q69 673 69 693 Q69 714 77 732.5 Q85 751 99.5 765 Q114 779 132.5 787.5 Q151 796 171 796 Q191 796 209.5 787.5 Q228 779 242 765 Q256 751 264 732.5 Q272 714 272 693 Q272 673 264 654.5 Q256 636 242 622 Q228 608 209.5 600 Q191 592 171 592 Z" /><glyph glyph-name="cedilla" unicode="¸" d="M71 -162 Q87 -167 103 -172 Q119 -177 136 -177 Q147 -177 159 -174.5 Q171 -172 181 -166.5 Q191 -161 197.5 -151.5 Q204 -142 204 -129 Q204 -109 188 -99 Q172 -89 153 -89 Q141 -89 130 -91.5 Q119 -94 108 -97 L92 -84 L154 0 L194 0 L145 -60 Q155 -58 164 -56 Q173 -54 182 -54 Q216 -54 237 -71 Q258 -88 261 -108 Q266 -135 258.5 -155 Q251 -175 234.5 -187.5 Q218 -200 195.5 -206 Q173 -212 148 -212 Q125 -212 101.5 -206.5 Q78 -201 55 -193 L71 -162 Z" /><glyph glyph-name="hungarumlaut" unicode="&#x2dd;" d="M278 588 L391 730 L470 730 L330 588 L278 588 ZM112 588 L225 730 L304 730 L164 588 L112 588 Z" /><glyph glyph-name="ogonek" unicode="&#x2db;" d="M204 0 L204 -2 Q191 -8 177 -17 Q163 -26 150.5 -37.5 Q138 -49 130 -62.5 Q122 -76 122 -91 Q122 -121 143 -135.5 Q164 -150 190 -150 Q212 -150 233 -140 L233 -185 Q207 -195 180 -195 Q160 -195 141.5 -189 Q123 -183 108 -172 Q93 -161 84.5 -144 Q76 -127 76 -105 Q76 -70 99.5 -42.5 Q123 -15 153 0 L204 0 Z" /><glyph glyph-name="caron" unicode="&#x2c7;" d="M259 730 L326 730 L210 588 L141 588 L25 730 L91 730 L175 626 L259 730 Z" /><glyph glyph-name="emdash" unicode="&#x2014;" d="M0 244 L0 289 L1024 289 L1024 244 L0 244 Z" /><glyph glyph-name="AE" unicode="æ" d="M202 291 L483 291 L483 678 L367 678 L202 291 ZM5 0 L326 737 L971 737 L971 678 L553 678 L553 412 L933 412 L933 352 L553 352 L553 59 L983 59 L983 0 L483 0 L483 231 L173 231 L75 0 L5 0 Z" /><glyph glyph-name="ordfeminine" unicode="ª" d="M251 597 Q225 587 199.5 584 Q174 581 147 579 Q101 575 74.5 559.5 Q48 544 48 511 Q48 481 72 466.5 Q96 452 125 452 Q148 452 171 457.5 Q194 463 211.5 474.5 Q229 486 240 504 Q251 522 251 547 L251 597 ZM183 615 Q195 616 210.5 618.5 Q226 621 237 626 Q247 630 249 640 Q251 650 251 658 Q251 687 231 706.5 Q211 726 165 726 Q123 726 96.5 709.5 Q70 693 65 651 L24 651 Q29 708 69 732.5 Q109 757 166 757 Q191 757 214.5 751.5 Q238 746 254.5 734.5 Q271 723 281 704 Q291 685 291 657 L291 484 Q291 463 299 457.5 Q307 452 333 460 L333 431 Q324 428 314 426 Q304 424 284 426 Q263 429 257.5 443 Q252 457 251 474 Q201 421 123 421 Q100 421 79 426.5 Q58 432 42.5 443.5 Q27 455 17.5 471.5 Q8 488 8 512 Q8 593 128 608 L183 615 Z" /><glyph glyph-name="Oslash" unicode="ø" d="M212 110 Q245 77 290.5 58.5 Q336 40 395 40 Q467 40 518.5 66.5 Q570 93 603.5 138.5 Q637 184 653 243.5 Q669 303 669 368 Q669 422 657 475 Q645 528 618 573 L212 110 ZM586 618 Q556 651 510 674 Q464 697 393 697 Q323 697 271 669.5 Q219 642 186 596 Q153 550 137 490.5 Q121 431 121 368 Q121 306 134.5 251 Q148 196 178 151 L586 618 ZM714 765 L754 729 L665 627 Q694 594 716 527 Q738 460 738 368 Q738 288 716 217.5 Q694 147 651 94.5 Q608 42 543.5 11.5 Q479 -19 394 -19 Q324 -19 268.5 2 Q213 23 170 61 L83 -38 L43 -3 L134 100 Q92 153 71.5 221 Q51 289 51 368 Q51 450 74 521 Q97 592 140.5 644 Q184 696 247 726.5 Q310 757 391 757 Q461 757 521 736 Q581 715 629 668 L714 765 Z" /><glyph glyph-name="OE" unicode="&#x152;" d="M560 510 Q560 602 505.5 649.5 Q451 697 354 697 Q238 697 175 614.5 Q112 532 112 370 Q112 297 126 236.5 Q140 176 171 132.5 Q202 89 249 64.5 Q296 40 362 40 Q401 40 440.5 55.5 Q480 71 510 95 Q542 122 551 154 Q560 186 560 226 L560 510 ZM563 74 Q545 55 524.5 38.5 Q504 22 479.5 9 Q455 -4 424.5 -11.5 Q394 -19 357 -19 Q272 -19 213 13 Q154 45 115.5 99 Q77 153 59.5 222.5 Q42 292 42 368 Q42 447 60 518.5 Q78 590 116 642.5 Q154 695 213 726 Q272 757 354 757 Q420 757 473.5 737.5 Q527 718 563 659 L563 737 L980 737 L980 678 L630 678 L630 412 L957 412 L957 352 L630 352 L630 59 L990 59 L990 0 L563 0 L563 74 Z" /><glyph glyph-name="ordmasculine" unicode="º" d="M51 589 Q51 529 82 490.5 Q113 452 171 452 Q203 452 225.5 463.5 Q248 475 262 494.5 Q276 514 283.5 538.5 Q291 563 291 589 Q291 616 284.5 641.5 Q278 667 263 686 Q248 705 225.5 715.5 Q203 726 171 726 Q139 726 116.5 714 Q94 702 79.5 683 Q65 664 58 639 Q51 614 51 589 ZM171 421 Q138 422 109 432.5 Q80 443 58.5 464 Q37 485 24 516 Q11 547 11 589 Q11 624 21 654.5 Q31 685 51 707.5 Q71 730 101 743.5 Q131 757 171 757 Q211 757 241 743.5 Q271 730 291 707.5 Q311 685 321 654.5 Q331 624 331 589 Q331 513 287.5 467 Q244 421 171 421 Z" /><glyph glyph-name="ae" unicode="æ" d="M802 302 Q802 340 791.5 374.5 Q781 409 761 434.5 Q741 460 710.5 474.5 Q680 489 640 489 Q592 489 558.5 470.5 Q525 452 505 423.5 Q485 395 476.5 362.5 Q468 330 468 302 L802 302 ZM402 281 Q378 267 346.5 261.5 Q315 256 282.5 252 Q250 248 218 243.5 Q186 239 161 228 Q136 217 120.5 197 Q105 177 105 144 Q105 92 135 66.5 Q165 41 216 41 Q309 41 355.5 87.5 Q402 134 402 209 L402 281 ZM283 308 Q323 312 346.5 317.5 Q370 323 382 330 Q394 337 398 347.5 Q402 358 402 374 Q402 441 373 465 Q344 489 273 489 Q212 489 173 463 Q134 437 126 373 L62 373 Q66 418 82.5 450 Q99 482 127.5 503 Q156 524 192.5 534.5 Q229 545 271 545 Q297 545 325 541.5 Q353 538 378.5 528 Q404 518 424.5 501 Q445 484 457 458 Q492 509 537 527 Q582 545 642 545 Q709 545 752.5 522 Q796 499 821.5 459 Q847 419 857 365.5 Q867 312 867 251 L468 251 Q468 208 477.5 169.5 Q487 131 508.5 103 Q530 75 563.5 58 Q597 41 644 41 Q706 41 744.5 73.5 Q783 106 799 164 L863 164 Q843 78 786 32 Q729 -14 639 -14 Q569 -14 519.5 14 Q470 42 434 102 Q420 82 401.5 61.5 Q383 41 357.5 24 Q332 7 296 -3.5 Q260 -14 211 -14 Q175 -14 144 -5.5 Q113 3 90 21.5 Q67 40 53.5 68 Q40 96 40 135 Q40 205 85.5 248.5 Q131 292 224 302 L283 308 Z" /><glyph glyph-name="dotlessi" unicode="&#x131;" d="M80 0 L80 530 L141 530 L141 0 L80 0 Z" /><glyph glyph-name="oslash" unicode="ø" d="M404 443 Q390 460 361.5 474.5 Q333 489 287 489 Q239 489 204.5 470.5 Q170 452 148.5 420 Q127 388 116.5 347.5 Q106 307 106 264 Q106 216 115.5 181.5 Q125 147 138 127 L404 443 ZM166 87 Q189 63 221.5 52 Q254 41 287 41 Q335 41 369 60 Q403 79 424.5 110 Q446 141 456.5 181 Q467 221 467 264 Q467 303 460.5 340 Q454 377 435 407 L166 87 ZM73 -24 L36 6 L95 76 Q67 114 54 162 Q41 210 41 264 Q41 323 56.5 373.5 Q72 424 102.5 462.5 Q133 501 179 523 Q225 545 287 545 Q336 545 375.5 531 Q415 517 444 490 L498 554 L534 522 L477 456 Q505 419 518.5 370 Q532 321 532 264 Q532 203 516 151.5 Q500 100 468.5 63.5 Q437 27 391 6.5 Q345 -14 287 -14 Q229 -14 190 4 Q151 22 128 42 L73 -24 Z" /><glyph glyph-name="oe" unicode="&#x153;" d="M860 302 Q860 342 851 376.5 Q842 411 822 436 Q802 461 771 475 Q740 489 697 489 Q658 489 626.5 474.5 Q595 460 573 434.5 Q551 409 538 374.5 Q525 340 523 302 L860 302 ZM102 255 Q102 212 113 173 Q124 134 146 105 Q168 76 200.5 58.5 Q233 41 279 41 Q323 41 356 58.5 Q389 76 411.5 106.5 Q434 137 446 180 Q458 223 458 275 Q458 322 446 361 Q434 400 411 429 Q388 458 353 473.5 Q318 489 272 489 Q189 489 144 426.5 Q99 364 102 255 ZM523 251 Q520 222 528 186 Q536 150 557.5 117.5 Q579 85 614.5 63 Q650 41 702 41 Q761 41 802.5 75 Q844 109 856 164 L919 164 Q900 77 842 31.5 Q784 -14 700 -14 Q625 -14 571.5 22.5 Q518 59 490 115 Q459 50 401.5 18 Q344 -14 273 -14 Q220 -14 176.5 5.5 Q133 25 102 61 Q71 97 54 149 Q37 201 37 264 Q37 323 51 373.5 Q65 424 94.5 462.5 Q124 501 169 523 Q214 545 278 545 Q352 545 405 514.5 Q458 484 490 417 Q524 481 575.5 513 Q627 545 700 545 Q770 545 814 520.5 Q858 496 882.5 455.5 Q907 415 916.5 361.5 Q926 308 926 251 L523 251 Z" /><glyph glyph-name="germandbls" unicode="ß" d="M216 435 Q250 436 279.5 443 Q309 450 330.5 464.5 Q352 479 364.5 502.5 Q377 526 377 562 Q377 620 346.5 658 Q316 696 248 696 Q203 696 177 685.5 Q151 675 137 655 Q123 635 119 607.5 Q115 580 115 546 L115 0 L53 0 L53 557 Q53 652 100 702 Q147 752 245 752 Q289 752 325 738.5 Q361 725 387.5 700.5 Q414 676 428 640.5 Q442 605 442 561 Q442 512 418.5 476.5 Q395 441 356 413 Q385 402 406.5 383.5 Q428 365 442 340 Q456 315 463 286.5 Q470 258 470 229 Q470 110 413 48 Q356 -14 254 -14 Q231 -14 216 -9 L216 45 Q254 38 288 45 Q322 52 348 72 Q374 92 389 125 Q404 158 404 204 Q404 301 359 342.5 Q314 384 216 384 L216 435 Z" /><glyph glyph-name="degree" unicode="°" d="M317 568 Q317 591 308 611.5 Q299 632 283.5 647.5 Q268 663 247.5 672 Q227 681 204 681 Q180 681 160 672 Q140 663 125 647.5 Q110 632 101 611.5 Q92 591 92 568 Q92 545 101 524.5 Q110 504 125 488.5 Q140 473 160.5 464.5 Q181 456 205 456 Q227 456 247.5 464.5 Q268 473 283.5 488.5 Q299 504 308 524.5 Q317 545 317 568 ZM358 568 Q358 537 346 508.5 Q334 480 313 459.5 Q292 439 264.5 427 Q237 415 205 415 Q173 415 145 427 Q117 439 96.5 459.5 Q76 480 63.5 508.5 Q51 537 51 568 Q51 600 63 627.5 Q75 655 96 676 Q117 697 145 709.5 Q173 722 205 722 Q237 722 264.5 709.5 Q292 697 313 676 Q334 655 346 627.5 Q358 600 358 568 Z" /><glyph glyph-name="oacute" unicode="ó" d="M226 588 L340 730 L419 730 L279 588 L226 588 ZM465 265 Q465 312 454.5 353 Q444 394 422.5 424.5 Q401 455 367.5 472 Q334 489 285 489 Q237 489 202.5 470.5 Q168 452 146.5 420.5 Q125 389 114.5 348.5 Q104 308 104 265 Q104 216 116 174.5 Q128 133 150.5 103.5 Q173 74 207 57.5 Q241 41 285 41 Q333 41 367 60 Q401 79 422.5 110.5 Q444 142 454.5 182 Q465 222 465 265 ZM285 -14 Q233 -13 188.5 4.5 Q144 22 111 56.5 Q78 91 58.5 143.5 Q39 196 39 265 Q39 324 54.5 374.5 Q70 425 100.5 463 Q131 501 177 523 Q223 545 285 545 Q347 545 393 523 Q439 501 470 463.5 Q501 426 515.5 375 Q530 324 530 265 Q530 202 513 150.5 Q496 99 463.5 62.5 Q431 26 385.5 6 Q340 -14 285 -14 Z" /><glyph glyph-name="Odieresis" unicode="ö" d="M453 909 L519 909 L519 805 L453 805 L453 909 ZM290 909 L356 909 L356 805 L290 805 L290 909 ZM398 40 Q470 40 521.5 67 Q573 94 606.5 139 Q640 184 656 243.5 Q672 303 672 368 Q672 444 653 505 Q634 566 598 609 Q562 652 511 674.5 Q460 697 396 697 Q326 697 274 669.5 Q222 642 189 596.5 Q156 551 140 491.5 Q124 432 124 368 Q124 302 140 242.5 Q156 183 189 138 Q222 93 274 66.5 Q326 40 398 40 ZM54 368 Q54 449 76 519.5 Q98 590 141 642.5 Q184 695 247.5 726 Q311 757 394 757 Q480 757 545 726.5 Q610 696 653.5 643.5 Q697 591 719 520 Q741 449 741 368 Q741 288 719 217.5 Q697 147 654 94.5 Q611 42 546.5 11.5 Q482 -19 397 -19 Q312 -19 247.5 11.5 Q183 42 140 94.5 Q97 147 75.5 217.5 Q54 288 54 368 Z" /><glyph glyph-name="odieresis" unicode="ö" d="M339 702 L406 702 L406 598 L339 598 L339 702 ZM176 702 L243 702 L243 598 L176 598 L176 702 ZM465 265 Q465 312 454.5 353 Q444 394 422.5 424.5 Q401 455 367.5 472 Q334 489 285 489 Q237 489 202.5 470.5 Q168 452 146.5 420.5 Q125 389 114.5 348.5 Q104 308 104 265 Q104 216 116 174.5 Q128 133 150.5 103.5 Q173 74 207 57.5 Q241 41 285 41 Q333 41 367 60 Q401 79 422.5 110.5 Q444 142 454.5 182 Q465 222 465 265 ZM285 -14 Q233 -13 188.5 4.5 Q144 22 111 56.5 Q78 91 58.5 143.5 Q39 196 39 265 Q39 324 54.5 374.5 Q70 425 100.5 463 Q131 501 177 523 Q223 545 285 545 Q347 545 393 523 Q439 501 470 463.5 Q501 426 515.5 375 Q530 324 530 265 Q530 202 513 150.5 Q496 99 463.5 62.5 Q431 26 385.5 6 Q340 -14 285 -14 Z" /><glyph glyph-name="Ecircumflex" unicode="ê" d="M233 795 L167 795 L284 937 L352 937 L468 795 L401 795 L317 899 L233 795 ZM83 0 L83 737 L573 737 L573 678 L153 678 L153 412 L532 412 L532 352 L153 352 L153 59 L584 59 L584 0 L83 0 Z" /><glyph glyph-name="ucircumflex" unicode="û" d="M206 588 L139 588 L256 730 L325 730 L440 588 L374 588 L290 692 L206 588 ZM433 530 L495 530 L495 0 L433 0 L433 74 Q421 59 405.5 44 Q390 29 370 16 Q350 3 323.5 -5.5 Q297 -14 262 -14 Q209 -14 173 0.5 Q137 15 115 42 Q93 69 83.5 104 Q74 139 74 181 L74 530 L135 530 L135 182 Q135 114 167 77.5 Q199 41 271 41 Q309 41 339.5 56 Q370 71 390.5 97.5 Q411 124 422 161 Q433 198 433 242 L433 530 Z" /><glyph glyph-name="logicalnot" unicode="¬" d="M528 326 L82 326 L82 387 L594 387 L594 115 L528 115 L528 326 Z" /><glyph glyph-name="Edieresis" unicode="ë" d="M204 909 L270 909 L270 805 L204 805 L204 909 ZM367 909 L433 909 L433 805 L367 805 L367 909 ZM83 0 L83 737 L573 737 L573 678 L153 678 L153 412 L532 412 L532 352 L153 352 L153 59 L584 59 L584 0 L83 0 Z" /><glyph glyph-name="Otilde" unicode="õ" d="M245 807 Q247 825 252 840 Q257 855 265 867 Q281 889 305 899.5 Q329 910 355 904 Q370 901 386 894 Q402 887 419 879 Q436 871 452 865.5 Q468 860 481 860 Q504 860 513 876.5 Q522 893 526 911 L565 911 Q564 901 561.5 891.5 Q559 882 557 872 Q546 848 528.5 829.5 Q511 811 481 811 Q460 811 441 818 Q422 825 403.5 834 Q385 843 367 850 Q349 857 332 857 Q308 857 298 841.5 Q288 826 282 807 L245 807 ZM398 40 Q470 40 521.5 67 Q573 94 606.5 139 Q640 184 656 243.5 Q672 303 672 368 Q672 444 653 505 Q634 566 598 609 Q562 652 511 674.5 Q460 697 396 697 Q326 697 274 669.5 Q222 642 189 596.5 Q156 551 140 491.5 Q124 432 124 368 Q124 302 140 242.5 Q156 183 189 138 Q222 93 274 66.5 Q326 40 398 40 ZM54 368 Q54 449 76 519.5 Q98 590 141 642.5 Q184 695 247.5 726 Q311 757 394 757 Q480 757 545 726.5 Q610 696 653.5 643.5 Q697 591 719 520 Q741 449 741 368 Q741 288 719 217.5 Q697 147 654 94.5 Q611 42 546.5 11.5 Q482 -19 397 -19 Q312 -19 247.5 11.5 Q183 42 140 94.5 Q97 147 75.5 217.5 Q54 288 54 368 Z" /><glyph glyph-name="uacute" unicode="ú" d="M226 588 L340 730 L419 730 L279 588 L226 588 ZM433 530 L495 530 L495 0 L433 0 L433 74 Q421 59 405.5 44 Q390 29 370 16 Q350 3 323.5 -5.5 Q297 -14 262 -14 Q209 -14 173 0.5 Q137 15 115 42 Q93 69 83.5 104 Q74 139 74 181 L74 530 L135 530 L135 182 Q135 114 167 77.5 Q199 41 271 41 Q309 41 339.5 56 Q370 71 390.5 97.5 Q411 124 422 161 Q433 198 433 242 L433 530 Z" /><glyph glyph-name="eacute" unicode="é" d="M226 588 L340 730 L419 730 L279 588 L226 588 ZM458 302 Q458 341 447 375.5 Q436 410 415 435 Q394 460 362.5 474.5 Q331 489 290 489 Q249 489 217.5 474 Q186 459 164 433.5 Q142 408 129 374 Q116 340 112 302 L458 302 ZM112 251 Q112 208 123 169.5 Q134 131 156 103 Q178 75 212 58 Q246 41 290 41 Q350 41 393 72.5 Q436 104 451 163 L519 163 Q508 125 489.5 92.5 Q471 60 443.5 36 Q416 12 378 -1 Q340 -14 290 -14 Q226 -14 180 7.5 Q134 29 104.5 66 Q75 103 60.5 154 Q46 205 46 263 Q46 322 63 373 Q80 424 111 462.5 Q142 501 187 523 Q232 545 290 545 Q399 545 461.5 469.5 Q524 394 523 251 L112 251 Z" /><glyph glyph-name="iacute" unicode="í" d="M34 588 L147 730 L226 730 L86 588 L34 588 ZM80 0 L80 530 L141 530 L141 0 L80 0 Z" /><glyph glyph-name="icircumflex" unicode="î" d="M13 588 L-53 588 L63 730 L132 730 L248 588 L181 588 L97 692 L13 588 ZM80 0 L80 530 L141 530 L141 0 L80 0 Z" /><glyph glyph-name="registered" unicode="®" d="M400 394 Q423 394 450 394 Q476 394 499 400.5 Q522 407 537 423 Q552 439 552 472 Q552 498 542 512.5 Q532 527 517 535 Q502 543 482.5 545.5 Q463 548 443 548 L319 548 L319 394 L400 394 ZM604 153 L541 153 L417 352 L319 352 L319 153 L266 153 L266 586 L456 586 Q542 586 575.5 555 Q609 524 609 471 Q609 439 599 416.5 Q589 394 570.5 380.5 Q552 367 527 360 Q502 353 473 352 L604 153 ZM411 32 Q481 32 541 58 Q601 84 644 129.5 Q687 175 711.5 236.5 Q736 298 736 370 Q736 440 711.5 501.5 Q687 563 644 608 Q601 653 541 679.5 Q481 706 411 706 Q340 706 279.5 679.5 Q219 653 175.5 608 Q132 563 107.5 501.5 Q83 440 83 370 Q83 298 107.5 236.5 Q132 175 175.5 129.5 Q219 84 279.5 58 Q340 32 411 32 ZM411 -19 Q330 -19 259 11.5 Q188 42 135.5 94.5 Q83 147 52.5 218 Q22 289 22 370 Q22 450 52.5 520.5 Q83 591 135.5 643 Q188 695 259 726 Q330 757 411 757 Q490 757 561 726 Q632 695 684.5 643 Q737 591 767.5 520.5 Q798 450 798 370 Q798 289 767.5 218 Q737 147 684.5 94.5 Q632 42 561 11.5 Q490 -19 411 -19 Z" /><glyph glyph-name="Atilde" unicode="ã" d="M187 807 Q189 825 194.5 840 Q200 855 208 867 Q223 889 247 899.5 Q271 910 298 904 Q312 901 328.5 894 Q345 887 362 879 Q379 871 395 865.5 Q411 860 424 860 Q446 860 455.5 876.5 Q465 893 469 911 L508 911 Q507 901 504.5 891.5 Q502 882 500 872 Q488 848 471 829.5 Q454 811 424 811 Q402 811 383.5 818 Q365 825 346.5 834 Q328 843 310 850 Q292 857 274 857 Q251 857 240.5 841.5 Q230 826 224 807 L187 807 ZM198 291 L486 291 L342 678 L198 291 ZM15 0 L305 737 L384 737 L667 0 L595 0 L510 231 L174 231 L87 0 L15 0 Z" /><glyph glyph-name="Aacute" unicode="á" d="M283 795 L396 937 L475 937 L335 795 L283 795 ZM198 291 L486 291 L342 678 L198 291 ZM15 0 L305 737 L384 737 L667 0 L595 0 L510 231 L174 231 L87 0 L15 0 Z" /><glyph glyph-name="Ccedilla" unicode="ç" d="M606 523 Q585 617 526.5 657 Q468 697 374 697 Q307 697 259 670.5 Q211 644 179.5 599 Q148 554 133.5 495 Q119 436 119 371 Q119 309 131.5 249.5 Q144 190 174 143.5 Q204 97 254 68.5 Q304 40 380 40 Q427 40 466 55.5 Q505 71 534 98 Q563 125 583 162 Q603 199 613 243 L686 243 Q674 190 651.5 143.5 Q629 97 592 61.5 Q555 26 502.5 4.5 Q450 -17 379 -18 L345 -60 Q354 -58 363.5 -56 Q373 -54 382 -54 Q416 -54 437 -71 Q458 -88 461 -108 Q466 -135 458.5 -155 Q451 -175 434.5 -187.5 Q418 -200 395.5 -206 Q373 -212 348 -212 Q325 -212 301.5 -206.5 Q278 -201 255 -193 L270 -162 Q287 -167 302.5 -172 Q318 -177 336 -177 Q347 -177 359 -174.5 Q371 -172 381 -166.5 Q391 -161 397 -151.5 Q403 -142 403 -129 Q403 -109 387.5 -99 Q372 -89 352 -89 Q341 -89 329.5 -91.5 Q318 -94 307 -97 L292 -84 L340 -18 Q262 -13 207 19.5 Q152 52 117 105 Q82 158 65.5 225.5 Q49 293 49 369 Q49 474 75 548 Q101 622 147.5 668.5 Q194 715 256 736 Q318 757 392 757 Q449 757 497.5 742 Q546 727 583.5 697.5 Q621 668 645 624.5 Q669 581 678 523 L606 523 Z" /><glyph glyph-name="ntilde" unicode="ñ" d="M131 600 Q133 618 138 633 Q143 648 152 660 Q167 682 191 692.5 Q215 703 242 697 Q256 694 272.5 687 Q289 680 306 672.5 Q323 665 338.5 659 Q354 653 368 653 Q390 653 399.5 669.5 Q409 686 413 705 L452 705 Q451 694 448 684.5 Q445 675 443 666 Q432 641 414.5 622.5 Q397 604 368 604 Q346 604 327 611 Q308 618 289.5 627 Q271 636 253.5 643 Q236 650 218 650 Q195 650 184.5 635 Q174 620 168 600 L131 600 ZM135 0 L74 0 L74 530 L135 530 L135 457 Q172 496 211.5 520.5 Q251 545 306 545 Q355 545 397 528 Q439 511 468 469 Q487 440 491 410 Q495 380 495 347 L495 0 L433 0 L433 346 Q433 418 401.5 453.5 Q370 489 296 489 Q267 489 243.5 480.5 Q220 472 201 457.5 Q182 443 169 425 Q156 407 148 386 Q139 360 137 336.5 Q135 313 135 286 L135 0 Z" /><glyph glyph-name="Aring" unicode="å" d="M362 833 Q389 833 409.5 853 Q430 873 430 900 Q430 927 410 948 Q390 969 362 969 Q335 969 314.5 948.5 Q294 928 294 900 Q294 872 315 852.5 Q336 833 362 833 ZM362 799 Q342 799 323 807 Q304 815 290 829 Q276 843 268 861.5 Q260 880 260 900 Q260 921 268 939 Q276 957 290.5 971.5 Q305 986 323.5 994 Q342 1002 362 1002 Q383 1002 401.5 994 Q420 986 433.5 971.5 Q447 957 455.5 939 Q464 921 464 900 Q464 880 455.5 861.5 Q447 843 433.5 829 Q420 815 401.5 807 Q383 799 362 799 ZM198 291 L486 291 L342 678 L198 291 ZM15 0 L305 737 L384 737 L667 0 L595 0 L510 231 L174 231 L87 0 L15 0 Z" /><glyph glyph-name="mu" unicode="µ&#x3bc;" d="M433 530 L495 530 L495 0 L433 0 L433 74 Q421 59 405.5 44 Q390 29 370 16 Q350 3 323.5 -5.5 Q297 -14 262 -14 Q219 -14 187.5 -4 Q156 6 135 18 L135 -209 L74 -209 L74 530 L135 530 L135 182 Q135 114 167 77.5 Q199 41 271 41 Q309 41 339.5 56 Q370 71 390.5 97.5 Q411 124 422 161 Q433 198 433 242 L433 530 Z" /><glyph glyph-name="Ugrave" unicode="ù" d="M246 937 L326 937 L439 795 L387 795 L246 937 ZM84 737 L154 737 L154 298 Q154 161 205 100.5 Q256 40 370 40 Q429 40 470.5 56 Q512 72 537.5 104 Q563 136 574.5 184 Q586 232 586 298 L586 737 L655 737 L655 278 Q655 133 584 57 Q513 -19 370 -19 Q225 -19 154.5 58.5 Q84 136 84 278 L84 737 Z" /><glyph glyph-name="Egrave" unicode="è" d="M188 937 L268 937 L382 795 L330 795 L188 937 ZM83 0 L83 737 L573 737 L573 678 L153 678 L153 412 L532 412 L532 352 L153 352 L153 59 L584 59 L584 0 L83 0 Z" /><glyph glyph-name="otilde" unicode="õ" d="M131 600 Q133 618 138 633 Q143 648 152 660 Q167 682 191 692.5 Q215 703 242 697 Q256 694 272.5 687 Q289 680 306 672.5 Q323 665 338.5 659 Q354 653 368 653 Q390 653 399.5 669.5 Q409 686 413 705 L452 705 Q451 694 448 684.5 Q445 675 443 666 Q432 641 414.5 622.5 Q397 604 368 604 Q346 604 327 611 Q308 618 289.5 627 Q271 636 253.5 643 Q236 650 218 650 Q195 650 184.5 635 Q174 620 168 600 L131 600 ZM465 265 Q465 312 454.5 353 Q444 394 422.5 424.5 Q401 455 367.5 472 Q334 489 285 489 Q237 489 202.5 470.5 Q168 452 146.5 420.5 Q125 389 114.5 348.5 Q104 308 104 265 Q104 216 116 174.5 Q128 133 150.5 103.5 Q173 74 207 57.5 Q241 41 285 41 Q333 41 367 60 Q401 79 422.5 110.5 Q444 142 454.5 182 Q465 222 465 265 ZM285 -14 Q233 -13 188.5 4.5 Q144 22 111 56.5 Q78 91 58.5 143.5 Q39 196 39 265 Q39 324 54.5 374.5 Q70 425 100.5 463 Q131 501 177 523 Q223 545 285 545 Q347 545 393 523 Q439 501 470 463.5 Q501 426 515.5 375 Q530 324 530 265 Q530 202 513 150.5 Q496 99 463.5 62.5 Q431 26 385.5 6 Q340 -14 285 -14 Z" /><glyph glyph-name="Ntilde" unicode="ñ" d="M216 807 Q218 825 223 840 Q228 855 237 867 Q252 889 276 899.5 Q300 910 327 904 Q341 901 357.5 894 Q374 887 391 879 Q408 871 423.5 865.5 Q439 860 453 860 Q475 860 484.5 876.5 Q494 893 498 911 L537 911 Q536 901 533 891.5 Q530 882 528 872 Q517 848 499.5 829.5 Q482 811 453 811 Q431 811 412 818 Q393 825 374.5 834 Q356 843 338.5 850 Q321 857 303 857 Q280 857 269.5 841.5 Q259 826 253 807 L216 807 ZM153 643 L151 643 L151 0 L81 0 L81 737 L160 737 L586 93 L588 93 L588 737 L657 737 L657 0 L577 0 L153 643 Z" /><glyph glyph-name="Uacute" unicode="ú" d="M311 795 L425 937 L504 937 L364 795 L311 795 ZM84 737 L154 737 L154 298 Q154 161 205 100.5 Q256 40 370 40 Q429 40 470.5 56 Q512 72 537.5 104 Q563 136 574.5 184 Q586 232 586 298 L586 737 L655 737 L655 278 Q655 133 584 57 Q513 -19 370 -19 Q225 -19 154.5 58.5 Q84 136 84 278 L84 737 Z" /><glyph glyph-name="Acircumflex" unicode="â" d="M262 795 L196 795 L312 937 L381 937 L497 795 L430 795 L346 899 L262 795 ZM198 291 L486 291 L342 678 L198 291 ZM15 0 L305 737 L384 737 L667 0 L595 0 L510 231 L174 231 L87 0 L15 0 Z" /><glyph glyph-name="ocircumflex" unicode="ô" d="M206 588 L139 588 L256 730 L325 730 L440 588 L374 588 L290 692 L206 588 ZM465 265 Q465 312 454.5 353 Q444 394 422.5 424.5 Q401 455 367.5 472 Q334 489 285 489 Q237 489 202.5 470.5 Q168 452 146.5 420.5 Q125 389 114.5 348.5 Q104 308 104 265 Q104 216 116 174.5 Q128 133 150.5 103.5 Q173 74 207 57.5 Q241 41 285 41 Q333 41 367 60 Q401 79 422.5 110.5 Q444 142 454.5 182 Q465 222 465 265 ZM285 -14 Q233 -13 188.5 4.5 Q144 22 111 56.5 Q78 91 58.5 143.5 Q39 196 39 265 Q39 324 54.5 374.5 Q70 425 100.5 463 Q131 501 177 523 Q223 545 285 545 Q347 545 393 523 Q439 501 470 463.5 Q501 426 515.5 375 Q530 324 530 265 Q530 202 513 150.5 Q496 99 463.5 62.5 Q431 26 385.5 6 Q340 -14 285 -14 Z" /><glyph glyph-name="ydieresis" unicode="ÿ" d="M147 702 L214 702 L214 598 L147 598 L147 702 ZM310 702 L377 702 L377 598 L310 598 L310 702 ZM70 -144 Q82 -146 95 -148.5 Q108 -151 121 -151 Q146 -151 162.5 -134.5 Q179 -118 190 -95 Q201 -72 208 -47 Q215 -22 224 -4 L18 530 L87 530 L257 75 L427 530 L494 530 L296 7 Q278 -43 261 -83 Q244 -123 225 -151 Q206 -179 183 -194 Q160 -209 128 -209 Q112 -209 97 -207 Q82 -205 70 -202 L70 -144 Z" /><glyph glyph-name="Eacute" unicode="é" d="M254 795 L368 937 L446 937 L306 795 L254 795 ZM83 0 L83 737 L573 737 L573 678 L153 678 L153 412 L532 412 L532 352 L153 352 L153 59 L584 59 L584 0 L83 0 Z" /><glyph glyph-name="Ograve" unicode="ò" d="M274 937 L354 937 L468 795 L416 795 L274 937 ZM398 40 Q470 40 521.5 67 Q573 94 606.5 139 Q640 184 656 243.5 Q672 303 672 368 Q672 444 653 505 Q634 566 598 609 Q562 652 511 674.5 Q460 697 396 697 Q326 697 274 669.5 Q222 642 189 596.5 Q156 551 140 491.5 Q124 432 124 368 Q124 302 140 242.5 Q156 183 189 138 Q222 93 274 66.5 Q326 40 398 40 ZM54 368 Q54 449 76 519.5 Q98 590 141 642.5 Q184 695 247.5 726 Q311 757 394 757 Q480 757 545 726.5 Q610 696 653.5 643.5 Q697 591 719 520 Q741 449 741 368 Q741 288 719 217.5 Q697 147 654 94.5 Q611 42 546.5 11.5 Q482 -19 397 -19 Q312 -19 247.5 11.5 Q183 42 140 94.5 Q97 147 75.5 217.5 Q54 288 54 368 Z" /><glyph glyph-name="acircumflex" unicode="â" d="M206 588 L139 588 L256 730 L325 730 L440 588 L374 588 L290 692 L206 588 ZM421 279 Q382 262 342 257 Q302 252 262 249 Q191 244 152 217 Q113 190 113 136 Q113 112 122.5 94 Q132 76 148 64 Q164 52 185 46.5 Q206 41 227 41 Q264 41 299 50 Q334 59 361 78 Q388 97 404.5 126.5 Q421 156 421 196 L421 279 ZM317 309 Q335 311 359 315 Q383 319 398 327 Q414 334 417.5 351 Q421 368 421 382 Q421 429 390.5 459 Q360 489 289 489 Q257 489 230.5 483.5 Q204 478 184 464.5 Q164 451 151 427.5 Q138 404 134 370 L72 370 Q75 417 93.5 450 Q112 483 141 504 Q170 525 208.5 535 Q247 545 290 545 Q330 545 365 536 Q400 527 426.5 508 Q453 489 467.5 457.5 Q482 426 482 380 L482 91 Q482 55 495 45.5 Q508 36 547 50 L547 2 Q540 0 526 -4 Q512 -8 499 -8 Q484 -8 471 -5 Q456 -3 446.5 4.5 Q437 12 431.5 23 Q426 34 424 46.5 Q422 59 422 74 Q383 31 333 8.5 Q283 -14 224 -14 Q189 -14 157 -5 Q125 4 100.5 23.5 Q76 43 61.5 71 Q47 99 47 138 Q47 273 232 298 L317 309 Z" /><glyph glyph-name="divide" unicode="÷" d="M301 0 L301 90 L376 90 L376 0 L301 0 ZM301 422 L301 512 L376 512 L376 422 L301 422 ZM82 287 L594 287 L594 225 L82 225 L82 287 Z" /><glyph glyph-name="ccedilla" unicode="ç" d="M450 364 Q433 423 393 456 Q353 489 292 489 Q245 489 211 470 Q177 451 155.5 418.5 Q134 386 124 345.5 Q114 305 114 264 Q114 222 123.5 182 Q133 142 154.5 110.5 Q176 79 210 60 Q244 41 292 41 Q360 41 401.5 79 Q443 117 455 183 L520 183 Q512 140 494.5 104.5 Q477 69 449.5 42.5 Q422 16 384 1.5 Q346 -13 297 -14 L260 -60 Q269 -58 278.5 -56 Q288 -54 297 -54 Q331 -54 352 -71 Q373 -88 376 -108 Q381 -135 373.5 -155 Q366 -175 349.5 -187.5 Q333 -200 310.5 -206 Q288 -212 263 -212 Q240 -212 216.5 -206.5 Q193 -201 170 -193 L185 -162 Q202 -167 217.5 -172 Q233 -177 251 -177 Q262 -177 274 -174.5 Q286 -172 296 -166.5 Q306 -161 312 -151.5 Q318 -142 318 -129 Q318 -109 302.5 -99 Q287 -89 267 -89 Q256 -89 244.5 -91.5 Q233 -94 222 -97 L207 -84 L260 -11 Q205 -6 165 17 Q125 40 99 77 Q73 114 60.5 161.5 Q48 209 48 264 Q48 319 64 370 Q80 421 110.5 460 Q141 499 186.5 522 Q232 545 292 545 Q384 545 441 501 Q498 457 512 364 L450 364 Z" /><glyph glyph-name="ugrave" unicode="ù" d="M161 730 L241 730 L354 588 L302 588 L161 730 ZM433 530 L495 530 L495 0 L433 0 L433 74 Q421 59 405.5 44 Q390 29 370 16 Q350 3 323.5 -5.5 Q297 -14 262 -14 Q209 -14 173 0.5 Q137 15 115 42 Q93 69 83.5 104 Q74 139 74 181 L74 530 L135 530 L135 182 Q135 114 167 77.5 Q199 41 271 41 Q309 41 339.5 56 Q370 71 390.5 97.5 Q411 124 422 161 Q433 198 433 242 L433 530 Z" /><glyph glyph-name="Agrave" unicode="à" d="M217 937 L297 937 L411 795 L358 795 L217 937 ZM198 291 L486 291 L342 678 L198 291 ZM15 0 L305 737 L384 737 L667 0 L595 0 L510 231 L174 231 L87 0 L15 0 Z" /><glyph glyph-name="Ucircumflex" unicode="û" d="M291 795 L224 795 L341 937 L410 937 L525 795 L459 795 L375 899 L291 795 ZM84 737 L154 737 L154 298 Q154 161 205 100.5 Q256 40 370 40 Q429 40 470.5 56 Q512 72 537.5 104 Q563 136 574.5 184 Q586 232 586 298 L586 737 L655 737 L655 278 Q655 133 584 57 Q513 -19 370 -19 Q225 -19 154.5 58.5 Q84 136 84 278 L84 737 Z" /><glyph glyph-name="Ydieresis" unicode="&#x178;" d="M204 909 L270 909 L270 805 L204 805 L204 909 ZM367 909 L433 909 L433 805 L367 805 L367 909 ZM309 382 L531 737 L612 737 L345 322 L345 0 L275 0 L275 316 L12 737 L92 737 L309 382 Z" /><glyph glyph-name="Adieresis" unicode="ä" d="M395 909 L462 909 L462 805 L395 805 L395 909 ZM232 909 L299 909 L299 805 L232 805 L232 909 ZM198 291 L486 291 L342 678 L198 291 ZM15 0 L305 737 L384 737 L667 0 L595 0 L510 231 L174 231 L87 0 L15 0 Z" /><glyph glyph-name="Icircumflex" unicode="î" d="M42 795 L-25 795 L92 937 L161 937 L276 795 L210 795 L126 899 L42 795 ZM108 0 L108 737 L177 737 L177 0 L108 0 Z" /><glyph glyph-name="idieresis" unicode="ï" d="M-16 702 L50 702 L50 598 L-16 598 L-16 702 ZM146 702 L213 702 L213 598 L146 598 L146 702 ZM80 0 L80 530 L141 530 L141 0 L80 0 Z" /><glyph glyph-name="Oacute" unicode="ó" d="M340 795 L454 937 L532 937 L392 795 L340 795 ZM398 40 Q470 40 521.5 67 Q573 94 606.5 139 Q640 184 656 243.5 Q672 303 672 368 Q672 444 653 505 Q634 566 598 609 Q562 652 511 674.5 Q460 697 396 697 Q326 697 274 669.5 Q222 642 189 596.5 Q156 551 140 491.5 Q124 432 124 368 Q124 302 140 242.5 Q156 183 189 138 Q222 93 274 66.5 Q326 40 398 40 ZM54 368 Q54 449 76 519.5 Q98 590 141 642.5 Q184 695 247.5 726 Q311 757 394 757 Q480 757 545 726.5 Q610 696 653.5 643.5 Q697 591 719 520 Q741 449 741 368 Q741 288 719 217.5 Q697 147 654 94.5 Q611 42 546.5 11.5 Q482 -19 397 -19 Q312 -19 247.5 11.5 Q183 42 140 94.5 Q97 147 75.5 217.5 Q54 288 54 368 Z" /><glyph glyph-name="aring" unicode="å" d="M286 626 Q312 626 332.5 646.5 Q353 667 353 693 Q353 720 333 741 Q313 762 286 762 Q258 762 237.5 741.5 Q217 721 217 693 Q217 666 238 646 Q259 626 286 626 ZM286 592 Q265 592 246 600 Q227 608 213.5 622 Q200 636 191.5 654.5 Q183 673 183 693 Q183 714 191.5 732.5 Q200 751 214 765 Q228 779 246.5 787.5 Q265 796 286 796 Q306 796 324.5 787.5 Q343 779 357 765 Q371 751 379 732.5 Q387 714 387 693 Q387 673 379 654.5 Q371 636 357 622 Q343 608 324.5 600 Q306 592 286 592 ZM421 279 Q382 262 342 257 Q302 252 262 249 Q191 244 152 217 Q113 190 113 136 Q113 112 122.5 94 Q132 76 148 64 Q164 52 185 46.5 Q206 41 227 41 Q264 41 299 50 Q334 59 361 78 Q388 97 404.5 126.5 Q421 156 421 196 L421 279 ZM317 309 Q335 311 359 315 Q383 319 398 327 Q414 334 417.5 351 Q421 368 421 382 Q421 429 390.5 459 Q360 489 289 489 Q257 489 230.5 483.5 Q204 478 184 464.5 Q164 451 151 427.5 Q138 404 134 370 L72 370 Q75 417 93.5 450 Q112 483 141 504 Q170 525 208.5 535 Q247 545 290 545 Q330 545 365 536 Q400 527 426.5 508 Q453 489 467.5 457.5 Q482 426 482 380 L482 91 Q482 55 495 45.5 Q508 36 547 50 L547 2 Q540 0 526 -4 Q512 -8 499 -8 Q484 -8 471 -5 Q456 -3 446.5 4.5 Q437 12 431.5 23 Q426 34 424 46.5 Q422 59 422 74 Q383 31 333 8.5 Q283 -14 224 -14 Q189 -14 157 -5 Q125 4 100.5 23.5 Q76 43 61.5 71 Q47 99 47 138 Q47 273 232 298 L317 309 Z" /><glyph glyph-name="trademark" unicode="&#x2122;" d="M357 696 L220 696 L220 306 L167 306 L167 696 L30 696 L30 737 L357 737 L357 696 ZM880 306 L826 306 L826 692 L824 692 L676 306 L641 306 L493 692 L490 692 L490 306 L437 306 L437 737 L536 737 L658 419 L660 419 L781 737 L880 737 L880 306 Z" /><glyph glyph-name="ograve" unicode="ò" d="M161 730 L241 730 L354 588 L302 588 L161 730 ZM465 265 Q465 312 454.5 353 Q444 394 422.5 424.5 Q401 455 367.5 472 Q334 489 285 489 Q237 489 202.5 470.5 Q168 452 146.5 420.5 Q125 389 114.5 348.5 Q104 308 104 265 Q104 216 116 174.5 Q128 133 150.5 103.5 Q173 74 207 57.5 Q241 41 285 41 Q333 41 367 60 Q401 79 422.5 110.5 Q444 142 454.5 182 Q465 222 465 265 ZM285 -14 Q233 -13 188.5 4.5 Q144 22 111 56.5 Q78 91 58.5 143.5 Q39 196 39 265 Q39 324 54.5 374.5 Q70 425 100.5 463 Q131 501 177 523 Q223 545 285 545 Q347 545 393 523 Q439 501 470 463.5 Q501 426 515.5 375 Q530 324 530 265 Q530 202 513 150.5 Q496 99 463.5 62.5 Q431 26 385.5 6 Q340 -14 285 -14 Z" /><glyph glyph-name="udieresis" unicode="ü" d="M176 702 L243 702 L243 598 L176 598 L176 702 ZM339 702 L406 702 L406 598 L339 598 L339 702 ZM433 530 L495 530 L495 0 L433 0 L433 74 Q421 59 405.5 44 Q390 29 370 16 Q350 3 323.5 -5.5 Q297 -14 262 -14 Q209 -14 173 0.5 Q137 15 115 42 Q93 69 83.5 104 Q74 139 74 181 L74 530 L135 530 L135 182 Q135 114 167 77.5 Q199 41 271 41 Q309 41 339.5 56 Q370 71 390.5 97.5 Q411 124 422 161 Q433 198 433 242 L433 530 Z" /><glyph glyph-name="edieresis" unicode="ë" d="M339 702 L406 702 L406 598 L339 598 L339 702 ZM176 702 L243 702 L243 598 L176 598 L176 702 ZM458 302 Q458 341 447 375.5 Q436 410 415 435 Q394 460 362.5 474.5 Q331 489 290 489 Q249 489 217.5 474 Q186 459 164 433.5 Q142 408 129 374 Q116 340 112 302 L458 302 ZM112 251 Q112 208 123 169.5 Q134 131 156 103 Q178 75 212 58 Q246 41 290 41 Q350 41 393 72.5 Q436 104 451 163 L519 163 Q508 125 489.5 92.5 Q471 60 443.5 36 Q416 12 378 -1 Q340 -14 290 -14 Q226 -14 180 7.5 Q134 29 104.5 66 Q75 103 60.5 154 Q46 205 46 263 Q46 322 63 373 Q80 424 111 462.5 Q142 501 187 523 Q232 545 290 545 Q399 545 461.5 469.5 Q524 394 523 251 L112 251 Z" /><glyph glyph-name="plusminus" unicode="±" d="M82 61 L594 61 L594 0 L82 0 L82 61 ZM307 512 L369 512 L369 338 L594 338 L594 276 L369 276 L369 102 L307 102 L307 276 L82 276 L82 338 L307 338 L307 512 Z" /><glyph glyph-name="aacute" unicode="á" d="M226 588 L340 730 L419 730 L279 588 L226 588 ZM421 279 Q382 262 342 257 Q302 252 262 249 Q191 244 152 217 Q113 190 113 136 Q113 112 122.5 94 Q132 76 148 64 Q164 52 185 46.5 Q206 41 227 41 Q264 41 299 50 Q334 59 361 78 Q388 97 404.5 126.5 Q421 156 421 196 L421 279 ZM317 309 Q335 311 359 315 Q383 319 398 327 Q414 334 417.5 351 Q421 368 421 382 Q421 429 390.5 459 Q360 489 289 489 Q257 489 230.5 483.5 Q204 478 184 464.5 Q164 451 151 427.5 Q138 404 134 370 L72 370 Q75 417 93.5 450 Q112 483 141 504 Q170 525 208.5 535 Q247 545 290 545 Q330 545 365 536 Q400 527 426.5 508 Q453 489 467.5 457.5 Q482 426 482 380 L482 91 Q482 55 495 45.5 Q508 36 547 50 L547 2 Q540 0 526 -4 Q512 -8 499 -8 Q484 -8 471 -5 Q456 -3 446.5 4.5 Q437 12 431.5 23 Q426 34 424 46.5 Q422 59 422 74 Q383 31 333 8.5 Q283 -14 224 -14 Q189 -14 157 -5 Q125 4 100.5 23.5 Q76 43 61.5 71 Q47 99 47 138 Q47 273 232 298 L317 309 Z" /><glyph glyph-name="Idieresis" unicode="ï" d="M12 909 L79 909 L79 805 L12 805 L12 909 ZM175 909 L242 909 L242 805 L175 805 L175 909 ZM108 0 L108 737 L177 737 L177 0 L108 0 Z" /><glyph glyph-name="igrave" unicode="ì" d="M-10 730 L70 730 L183 588 L131 588 L-10 730 ZM80 0 L80 530 L141 530 L141 0 L80 0 Z" /><glyph glyph-name="Iacute" unicode="í" d="M62 795 L176 937 L255 937 L115 795 L62 795 ZM108 0 L108 737 L177 737 L177 0 L108 0 Z" /><glyph glyph-name="copyright" unicode="©" d="M607 299 Q604 264 588 236 Q572 208 547.5 188.5 Q523 169 492.5 158.5 Q462 148 428 148 Q379 148 339.5 165.5 Q300 183 272 213 Q244 243 228.5 284 Q213 325 213 373 Q213 421 227.5 461.5 Q242 502 269.5 531.5 Q297 561 336.5 578 Q376 595 425 595 Q496 595 546 557 Q596 519 607 449 L552 449 Q544 495 508 522.5 Q472 550 426 550 Q387 550 358.5 536 Q330 522 311 498 Q292 474 282 442 Q272 410 272 374 Q272 339 282.5 306 Q293 273 313 248 Q333 223 361.5 208.5 Q390 194 428 194 Q451 194 472 201 Q493 208 509.5 222 Q526 236 537.5 255 Q549 274 552 299 L607 299 ZM411 32 Q481 32 541 58 Q601 84 644 129.5 Q687 175 711.5 236.5 Q736 298 736 370 Q736 440 711.5 501.5 Q687 563 644 608 Q601 653 541 679.5 Q481 706 411 706 Q340 706 279.5 679.5 Q219 653 175.5 608 Q132 563 107.5 501.5 Q83 440 83 370 Q83 298 107.5 236.5 Q132 175 175.5 129.5 Q219 84 279.5 58 Q340 32 411 32 ZM411 -19 Q330 -19 259 11.5 Q188 42 135.5 94.5 Q83 147 52.5 218 Q22 289 22 370 Q22 450 52.5 520.5 Q83 591 135.5 643 Q188 695 259 726 Q330 757 411 757 Q490 757 561 726 Q632 695 684.5 643 Q737 591 767.5 520.5 Q798 450 798 370 Q798 289 767.5 218 Q737 147 684.5 94.5 Q632 42 561 11.5 Q490 -19 411 -19 Z" /><glyph glyph-name="adieresis" unicode="ä" d="M339 702 L406 702 L406 598 L339 598 L339 702 ZM176 702 L243 702 L243 598 L176 598 L176 702 ZM421 279 Q382 262 342 257 Q302 252 262 249 Q191 244 152 217 Q113 190 113 136 Q113 112 122.5 94 Q132 76 148 64 Q164 52 185 46.5 Q206 41 227 41 Q264 41 299 50 Q334 59 361 78 Q388 97 404.5 126.5 Q421 156 421 196 L421 279 ZM317 309 Q335 311 359 315 Q383 319 398 327 Q414 334 417.5 351 Q421 368 421 382 Q421 429 390.5 459 Q360 489 289 489 Q257 489 230.5 483.5 Q204 478 184 464.5 Q164 451 151 427.5 Q138 404 134 370 L72 370 Q75 417 93.5 450 Q112 483 141 504 Q170 525 208.5 535 Q247 545 290 545 Q330 545 365 536 Q400 527 426.5 508 Q453 489 467.5 457.5 Q482 426 482 380 L482 91 Q482 55 495 45.5 Q508 36 547 50 L547 2 Q540 0 526 -4 Q512 -8 499 -8 Q484 -8 471 -5 Q456 -3 446.5 4.5 Q437 12 431.5 23 Q426 34 424 46.5 Q422 59 422 74 Q383 31 333 8.5 Q283 -14 224 -14 Q189 -14 157 -5 Q125 4 100.5 23.5 Q76 43 61.5 71 Q47 99 47 138 Q47 273 232 298 L317 309 Z" /><glyph glyph-name="agrave" unicode="à" d="M161 730 L241 730 L354 588 L302 588 L161 730 ZM421 279 Q382 262 342 257 Q302 252 262 249 Q191 244 152 217 Q113 190 113 136 Q113 112 122.5 94 Q132 76 148 64 Q164 52 185 46.5 Q206 41 227 41 Q264 41 299 50 Q334 59 361 78 Q388 97 404.5 126.5 Q421 156 421 196 L421 279 ZM317 309 Q335 311 359 315 Q383 319 398 327 Q414 334 417.5 351 Q421 368 421 382 Q421 429 390.5 459 Q360 489 289 489 Q257 489 230.5 483.5 Q204 478 184 464.5 Q164 451 151 427.5 Q138 404 134 370 L72 370 Q75 417 93.5 450 Q112 483 141 504 Q170 525 208.5 535 Q247 545 290 545 Q330 545 365 536 Q400 527 426.5 508 Q453 489 467.5 457.5 Q482 426 482 380 L482 91 Q482 55 495 45.5 Q508 36 547 50 L547 2 Q540 0 526 -4 Q512 -8 499 -8 Q484 -8 471 -5 Q456 -3 446.5 4.5 Q437 12 431.5 23 Q426 34 424 46.5 Q422 59 422 74 Q383 31 333 8.5 Q283 -14 224 -14 Q189 -14 157 -5 Q125 4 100.5 23.5 Q76 43 61.5 71 Q47 99 47 138 Q47 273 232 298 L317 309 Z" /><glyph glyph-name="Igrave" unicode="ì" d="M18 937 L98 937 L212 795 L160 795 L18 937 ZM108 0 L108 737 L177 737 L177 0 L108 0 Z" /><glyph glyph-name="Ocircumflex" unicode="ô" d="M319 795 L253 795 L370 937 L438 937 L554 795 L487 795 L403 899 L319 795 ZM398 40 Q470 40 521.5 67 Q573 94 606.5 139 Q640 184 656 243.5 Q672 303 672 368 Q672 444 653 505 Q634 566 598 609 Q562 652 511 674.5 Q460 697 396 697 Q326 697 274 669.5 Q222 642 189 596.5 Q156 551 140 491.5 Q124 432 124 368 Q124 302 140 242.5 Q156 183 189 138 Q222 93 274 66.5 Q326 40 398 40 ZM54 368 Q54 449 76 519.5 Q98 590 141 642.5 Q184 695 247.5 726 Q311 757 394 757 Q480 757 545 726.5 Q610 696 653.5 643.5 Q697 591 719 520 Q741 449 741 368 Q741 288 719 217.5 Q697 147 654 94.5 Q611 42 546.5 11.5 Q482 -19 397 -19 Q312 -19 247.5 11.5 Q183 42 140 94.5 Q97 147 75.5 217.5 Q54 288 54 368 Z" /><glyph glyph-name="egrave" unicode="è" d="M161 730 L241 730 L354 588 L302 588 L161 730 ZM458 302 Q458 341 447 375.5 Q436 410 415 435 Q394 460 362.5 474.5 Q331 489 290 489 Q249 489 217.5 474 Q186 459 164 433.5 Q142 408 129 374 Q116 340 112 302 L458 302 ZM112 251 Q112 208 123 169.5 Q134 131 156 103 Q178 75 212 58 Q246 41 290 41 Q350 41 393 72.5 Q436 104 451 163 L519 163 Q508 125 489.5 92.5 Q471 60 443.5 36 Q416 12 378 -1 Q340 -14 290 -14 Q226 -14 180 7.5 Q134 29 104.5 66 Q75 103 60.5 154 Q46 205 46 263 Q46 322 63 373 Q80 424 111 462.5 Q142 501 187 523 Q232 545 290 545 Q399 545 461.5 469.5 Q524 394 523 251 L112 251 Z" /><glyph glyph-name="atilde" unicode="ã" d="M131 600 Q133 618 138 633 Q143 648 152 660 Q167 682 191 692.5 Q215 703 242 697 Q256 694 272.5 687 Q289 680 306 672.5 Q323 665 338.5 659 Q354 653 368 653 Q390 653 399.5 669.5 Q409 686 413 705 L452 705 Q451 694 448 684.5 Q445 675 443 666 Q432 641 414.5 622.5 Q397 604 368 604 Q346 604 327 611 Q308 618 289.5 627 Q271 636 253.5 643 Q236 650 218 650 Q195 650 184.5 635 Q174 620 168 600 L131 600 ZM421 279 Q382 262 342 257 Q302 252 262 249 Q191 244 152 217 Q113 190 113 136 Q113 112 122.5 94 Q132 76 148 64 Q164 52 185 46.5 Q206 41 227 41 Q264 41 299 50 Q334 59 361 78 Q388 97 404.5 126.5 Q421 156 421 196 L421 279 ZM317 309 Q335 311 359 315 Q383 319 398 327 Q414 334 417.5 351 Q421 368 421 382 Q421 429 390.5 459 Q360 489 289 489 Q257 489 230.5 483.5 Q204 478 184 464.5 Q164 451 151 427.5 Q138 404 134 370 L72 370 Q75 417 93.5 450 Q112 483 141 504 Q170 525 208.5 535 Q247 545 290 545 Q330 545 365 536 Q400 527 426.5 508 Q453 489 467.5 457.5 Q482 426 482 380 L482 91 Q482 55 495 45.5 Q508 36 547 50 L547 2 Q540 0 526 -4 Q512 -8 499 -8 Q484 -8 471 -5 Q456 -3 446.5 4.5 Q437 12 431.5 23 Q426 34 424 46.5 Q422 59 422 74 Q383 31 333 8.5 Q283 -14 224 -14 Q189 -14 157 -5 Q125 4 100.5 23.5 Q76 43 61.5 71 Q47 99 47 138 Q47 273 232 298 L317 309 Z" /><glyph glyph-name="Udieresis" unicode="ü" d="M261 909 L328 909 L328 805 L261 805 L261 909 ZM424 909 L490 909 L490 805 L424 805 L424 909 ZM84 737 L154 737 L154 298 Q154 161 205 100.5 Q256 40 370 40 Q429 40 470.5 56 Q512 72 537.5 104 Q563 136 574.5 184 Q586 232 586 298 L586 737 L655 737 L655 278 Q655 133 584 57 Q513 -19 370 -19 Q225 -19 154.5 58.5 Q84 136 84 278 L84 737 Z" /><glyph glyph-name="ecircumflex" unicode="ê" d="M206 588 L139 588 L256 730 L325 730 L440 588 L374 588 L290 692 L206 588 ZM458 302 Q458 341 447 375.5 Q436 410 415 435 Q394 460 362.5 474.5 Q331 489 290 489 Q249 489 217.5 474 Q186 459 164 433.5 Q142 408 129 374 Q116 340 112 302 L458 302 ZM112 251 Q112 208 123 169.5 Q134 131 156 103 Q178 75 212 58 Q246 41 290 41 Q350 41 393 72.5 Q436 104 451 163 L519 163 Q508 125 489.5 92.5 Q471 60 443.5 36 Q416 12 378 -1 Q340 -14 290 -14 Q226 -14 180 7.5 Q134 29 104.5 66 Q75 103 60.5 154 Q46 205 46 263 Q46 322 63 373 Q80 424 111 462.5 Q142 501 187 523 Q232 545 290 545 Q399 545 461.5 469.5 Q524 394 523 251 L112 251 Z" /><glyph glyph-name="numbersign" unicode="#" d="M232 437 L210 294 L351 294 L372 437 L232 437 ZM516 233 L402 233 L370 0 L309 0 L341 233 L201 233 L166 0 L105 0 L140 233 L28 233 L28 294 L150 294 L171 437 L56 437 L56 498 L179 498 L212 715 L273 715 L241 498 L380 498 L412 715 L472 715 L440 498 L543 498 L543 437 L432 437 L412 294 L516 294 L516 233 Z" /><glyph glyph-name="exclam" unicode="!" d="M133 0 L133 90 L208 90 L208 0 L133 0 ZM133 508 L133 737 L208 737 L208 508 L194 185 L147 185 L133 508 Z" /><glyph glyph-name="quotedbl" unicode="&quot;" d="M172 737 L225 737 L225 506 L172 506 L172 737 ZM58 737 L112 737 L112 506 L58 506 L58 737 Z" /><glyph glyph-name="Lslash" unicode="&#x141;" d="M83 0 L83 369 L0 328 L0 389 L83 430 L83 737 L153 737 L153 481 L236 522 L236 461 L153 420 L153 59 L548 59 L548 0 L83 0 Z" /><glyph glyph-name="lslash" unicode="&#x142;" d="M83 0 L83 348 L10 307 L10 369 L83 410 L83 737 L144 737 L144 461 L217 502 L217 440 L144 399 L144 0 L83 0 Z" /><glyph glyph-name="onesuperior" unicode="¹" d="M210 645 L89 645 L89 672 Q116 673 138 676 Q160 679 175.5 687.5 Q191 696 202.5 712.5 Q214 729 219 757 L253 757 L253 324 L210 324 L210 645 Z" /><glyph glyph-name="minus" unicode="&#x2212;" d="M82 287 L594 287 L594 225 L82 225 L82 287 Z" /><glyph glyph-name="onequarter" unicode="¼" d="M534 140 L706 140 L706 370 L534 140 ZM162 645 L41 645 L41 672 Q68 673 90 676 Q112 679 127.5 687.5 Q143 696 154.5 712.5 Q166 729 171 757 L205 757 L205 324 L162 324 L162 645 ZM172 -14 L627 722 L679 722 L224 -14 L172 -14 ZM706 106 L492 106 L492 140 L710 429 L749 429 L749 140 L813 140 L813 106 L749 106 L749 0 L706 0 L706 106 Z" /><glyph glyph-name="onehalf" unicode="½" d="M162 645 L41 645 L41 672 Q68 673 90 676 Q112 679 127.5 687.5 Q143 696 154.5 712.5 Q166 729 171 757 L205 757 L205 324 L162 324 L162 645 ZM131 -14 L586 722 L638 722 L183 -14 L131 -14 ZM516 291 Q516 355 557.5 394 Q599 433 669 433 Q739 433 776 398.5 Q813 364 813 313 Q813 270 791 241.5 Q769 213 737.5 192.5 Q706 172 670.5 155.5 Q635 139 609 121 Q586 104 568 84.5 Q550 65 548 33 L809 33 L809 0 L503 0 Q503 31 509.5 56.5 Q516 82 539 105 Q563 131 589.5 149.5 Q616 168 641.5 182.5 Q667 197 690 209 Q713 221 729.5 235.5 Q746 250 756.5 268 Q767 286 767 311 Q767 354 737 377 Q707 400 664 400 Q640 400 621 391.5 Q602 383 588 367.5 Q574 352 567 332 Q560 312 561 291 L516 291 Z" /><glyph glyph-name="Eth" unicode="ð" d="M153 421 L317 421 L317 361 L153 361 L153 59 L319 59 Q367 59 408.5 65 Q450 71 493 93 Q529 112 553 143.5 Q577 175 590.5 212.5 Q604 250 609.5 291 Q615 332 615 370 Q615 410 610 451.5 Q605 493 591 530 Q577 567 552 598.5 Q527 630 488 650 Q456 668 411 673 Q366 678 319 678 L153 678 L153 421 ZM83 737 L335 737 Q366 737 395.5 735.5 Q425 734 453.5 728.5 Q482 723 509.5 711.5 Q537 700 562 682 Q599 655 622.5 617 Q646 579 660 536.5 Q674 494 679.5 450.5 Q685 407 685 370 Q685 333 680.5 295 Q676 257 665.5 220.5 Q655 184 638.5 151 Q622 118 596 90 Q570 61 540 44 Q510 27 476.5 17 Q443 7 407.5 3.5 Q372 0 335 0 L83 0 L83 361 L10 361 L10 421 L83 421 L83 737 Z" /><glyph glyph-name="brokenbar" unicode="¦" d="M144 179 L144 -179 L83 -179 L83 179 L144 179 ZM144 691 L144 333 L83 333 L83 691 L144 691 Z" /><glyph glyph-name="thorn" unicode="þ" d="M142 263 Q142 218 154.5 177.5 Q167 137 190 107 Q213 77 246.5 59 Q280 41 322 41 Q369 41 404 60 Q439 79 461.5 111.5 Q484 144 494.5 187.5 Q505 231 503 282 Q503 332 489 370.5 Q475 409 450.5 435.5 Q426 462 393 475.5 Q360 489 322 489 Q279 489 245 472 Q211 455 188.5 424.5 Q166 394 154 352.5 Q142 311 142 263 ZM142 -209 L81 -209 L81 737 L142 737 L142 437 L144 437 Q158 463 179 483.5 Q200 504 225 517 Q250 530 276.5 537.5 Q303 545 329 545 Q393 545 438 523.5 Q483 502 512.5 464.5 Q542 427 555 376 Q568 325 568 266 Q568 211 554 160 Q540 109 510.5 70.5 Q481 32 436.5 9 Q392 -14 332 -14 Q275 -14 223.5 11 Q172 36 142 85 L142 -209 Z" /><glyph glyph-name="yacute" unicode="ý" d="M198 588 L311 730 L390 730 L250 588 L198 588 ZM70 -144 Q82 -146 95 -148.5 Q108 -151 121 -151 Q146 -151 162.5 -134.5 Q179 -118 190 -95 Q201 -72 208 -47 Q215 -22 224 -4 L18 530 L87 530 L257 75 L427 530 L494 530 L296 7 Q278 -43 261 -83 Q244 -123 225 -151 Q206 -179 183 -194 Q160 -209 128 -209 Q112 -209 97 -207 Q82 -205 70 -202 L70 -144 Z" /><glyph glyph-name="eth" unicode="ð" d="M465 265 Q465 312 454.5 353 Q444 394 422.5 424.5 Q401 455 367.5 472 Q334 489 285 489 Q237 489 202.5 470.5 Q168 452 146.5 420.5 Q125 389 114.5 348.5 Q104 308 104 265 Q104 216 116 174.5 Q128 133 150.5 103.5 Q173 74 207 57.5 Q241 41 285 41 Q333 41 367 60 Q401 79 422.5 110.5 Q444 142 454.5 182 Q465 222 465 265 ZM274 600 L236 625 L302 678 Q285 690 264.5 701 Q244 712 220 723 L262 757 Q284 748 304 736.5 Q324 725 343 711 L399 757 L437 731 L377 682 Q449 614 489.5 508 Q530 402 530 265 Q530 202 513 150.5 Q496 99 463.5 62.5 Q431 26 385.5 6 Q340 -14 285 -14 Q233 -13 188.5 4.5 Q144 22 111 56.5 Q78 91 58.5 143.5 Q39 196 39 265 Q39 317 53 367.5 Q67 418 96 457.5 Q125 497 171 521 Q217 545 281 545 Q306 545 325.5 543 Q345 541 362 535.5 Q379 530 395.5 521 Q412 512 430 498 Q412 550 389.5 587 Q367 624 337 650 L274 600 Z" /><glyph glyph-name="Scaron" unicode="&#x160;" d="M401 937 L468 937 L352 795 L284 795 L167 937 L233 937 L317 833 L401 937 ZM112 220 Q116 171 134 136.5 Q152 102 180 80.5 Q208 59 245 49.5 Q282 40 324 40 Q373 40 408.5 52.5 Q444 65 466.5 85.5 Q489 106 500 134 Q511 162 511 193 Q511 236 491.5 262.5 Q472 289 441 306 Q410 323 369.5 333 Q329 343 286.5 352.5 Q244 362 203.5 375.5 Q163 389 131.5 411.5 Q100 434 80.5 469.5 Q61 505 61 559 Q61 597 77 633 Q93 669 124.5 696.5 Q156 724 203 740.5 Q250 757 311 757 Q374 757 420.5 739.5 Q467 722 497.5 692 Q528 662 543.5 622 Q559 582 559 537 L493 537 Q493 579 478 609.5 Q463 640 437.5 659.5 Q412 679 379 688 Q346 697 311 697 Q258 697 221.5 682.5 Q185 668 163.5 644.5 Q142 621 134 592 Q126 563 131 535 Q137 499 159.5 477.5 Q182 456 215 442 Q248 428 287.5 419.5 Q327 411 368 401 Q409 391 447 378 Q485 365 515 342 Q545 319 563 284 Q581 249 581 196 Q581 93 510 37 Q439 -19 311 -19 Q254 -19 205 -4.5 Q156 10 120 40.5 Q84 71 64 115.5 Q44 160 44 220 L112 220 Z" /><glyph glyph-name="multiply" unicode="×" d="M123 6 L85 43 L301 259 L85 475 L123 512 L339 297 L554 512 L592 475 L377 259 L592 43 L554 6 L339 221 L123 6 Z" /><glyph glyph-name="twosuperior" unicode="²" d="M29 614 Q29 679 70.5 718 Q112 757 181 757 Q252 757 289 722 Q326 687 326 637 Q326 594 304 565.5 Q282 537 250 516.5 Q218 496 182.5 479.5 Q147 463 122 444 Q98 428 80 408 Q62 388 60 356 L322 356 L322 324 L15 324 Q15 354 22 380 Q29 406 51 429 Q76 455 102.5 473.5 Q129 492 154 506 Q179 520 202 532.5 Q225 545 242 559 Q259 573 269.5 591 Q280 609 280 635 Q280 678 249.5 701 Q219 724 176 724 Q153 724 134 715.5 Q115 707 101 691.5 Q87 676 80 656 Q73 636 74 614 L29 614 Z" /><glyph glyph-name="zcaron" unicode="&#x17e;" d="M345 730 L412 730 L296 588 L227 588 L111 730 L177 730 L261 626 L345 730 ZM34 0 L34 54 L386 479 L57 479 L57 530 L465 530 L465 476 L113 51 L478 51 L478 0 L34 0 Z" /><glyph glyph-name="Yacute" unicode="ý" d="M254 795 L368 937 L446 937 L306 795 L254 795 ZM309 382 L531 737 L612 737 L345 322 L345 0 L275 0 L275 316 L12 737 L92 737 L309 382 Z" /><glyph glyph-name="threesuperior" unicode="³" d="M136 564 Q166 564 190.5 567.5 Q215 571 233 580.5 Q251 590 260.5 606.5 Q270 623 270 647 Q270 687 240.5 705.5 Q211 724 171 724 Q125 724 97.5 698 Q70 672 70 631 L28 631 Q28 660 38.5 684 Q49 708 73 728 Q95 746 122.5 751.5 Q150 757 179 757 Q207 757 231.5 750 Q256 743 274 730 Q292 717 302.5 697 Q313 677 313 650 Q313 581 247 553 Q272 546 288 534 Q304 522 313.5 507.5 Q323 493 326.5 477.5 Q330 462 330 446 Q330 392 291 354.5 Q252 317 178 315 Q137 315 107.5 322 Q78 329 58 344 Q38 359 26.5 385 Q15 411 11 449 L54 449 Q54 399 86.5 373.5 Q119 348 171 348 Q197 348 218.5 356.5 Q240 365 255.5 378 Q271 391 279.5 409 Q288 427 287 445 Q286 472 274 489.5 Q262 507 241.5 517 Q221 527 194 531 Q167 535 136 532 L136 564 Z" /><glyph glyph-name="Zcaron" unicode="&#x17d;" d="M401 937 L468 937 L352 795 L284 795 L167 937 L233 937 L317 833 L401 937 ZM32 0 L32 58 L504 678 L72 678 L72 737 L590 737 L590 679 L118 59 L593 59 L593 0 L32 0 Z" /><glyph glyph-name="threequarters" unicode="¾" d="M534 140 L706 140 L706 370 L534 140 ZM213 -14 L668 722 L720 722 L265 -14 L213 -14 ZM166 564 Q196 564 220.5 567.5 Q245 571 263 580.5 Q281 590 290.5 606.5 Q300 623 300 647 Q300 687 270.5 705.5 Q241 724 201 724 Q155 724 127 698 Q99 672 99 631 L57 631 Q57 660 68 684 Q79 708 102 728 Q125 746 152 751.5 Q179 757 209 757 Q237 757 261.5 750 Q286 743 304 730 Q322 717 332.5 697 Q343 677 343 650 Q343 581 276 553 Q302 546 318 534 Q334 522 343 507.5 Q352 493 355.5 477.5 Q359 462 359 446 Q359 392 320.5 354.5 Q282 317 208 315 Q167 315 137.5 322 Q108 329 88 344 Q68 359 56.5 385 Q45 411 41 449 L84 449 Q84 399 116 373.5 Q148 348 201 348 Q226 348 247.5 356.5 Q269 365 285 378 Q301 391 309 409 Q317 427 316 445 Q315 472 303.5 489.5 Q292 507 271.5 517 Q251 527 224 531 Q197 535 166 532 L166 564 ZM706 106 L492 106 L492 140 L710 429 L749 429 L749 140 L813 140 L813 106 L749 106 L749 0 L706 0 L706 106 Z" /><glyph glyph-name="Euro" unicode="&#x20ac;" d="M40 297 L102 297 Q101 311 100.5 325 Q100 339 100 353 Q100 365 100 375 Q100 386 101 397 L22 397 L41 453 L106 453 Q116 529 139.5 580.5 Q163 632 195.5 663.5 Q228 695 267.5 708.5 Q307 722 349 722 Q397 722 431 710 Q465 698 488.5 681 Q512 664 526 643 Q540 622 548 603 L519 525 Q510 563 493 590 Q476 617 453.5 634 Q431 651 404.5 659 Q378 667 349 667 Q309 667 278.5 651 Q248 635 226.5 606.5 Q205 578 191.5 539 Q178 500 172 453 L490 453 L470 397 L167 397 Q167 386 166.5 376 Q166 366 166 354 Q166 340 166.5 325.5 Q167 311 168 297 L433 297 L413 242 L174 242 Q181 198 194.5 161 Q208 124 229.5 97.5 Q251 71 280.5 56 Q310 41 349 41 Q401 41 444.5 70.5 Q488 100 520 153 L520 67 Q492 31 447 8.5 Q402 -14 349 -14 Q308 -14 269 -1.5 Q230 11 198 41 Q166 71 142 120 Q118 169 108 242 L19 242 L40 297 Z" /><glyph glyph-name="scaron" unicode="&#x161;" d="M345 730 L412 730 L296 588 L227 588 L111 730 L177 730 L261 626 L345 730 ZM110 166 Q124 97 161.5 69 Q199 41 268 41 Q302 41 326.5 49 Q351 57 367 71 Q383 85 391 102.5 Q399 120 399 139 Q399 178 374 197 Q349 216 311 227 Q273 238 229 245.5 Q185 253 147.5 268.5 Q110 284 84.5 312.5 Q59 341 59 393 Q59 460 108 502.5 Q157 545 246 545 Q332 545 385.5 506.5 Q439 468 451 378 L388 378 Q380 439 341.5 464 Q303 489 245 489 Q186 489 155.5 464 Q125 439 125 398 Q125 362 150 343.5 Q175 325 213 313 Q251 301 295 292 Q339 283 377 266 Q415 249 440 220 Q465 191 465 140 Q465 102 448.5 73 Q432 44 403.5 24.5 Q375 5 335.5 -4.5 Q296 -14 249 -14 Q202 -14 165.5 -0.5 Q129 13 103.5 37.5 Q78 62 63.5 95 Q49 128 47 166 L110 166 Z" /><glyph glyph-name="Thorn" unicode="þ" d="M309 231 Q358 231 397 237.5 Q436 244 463 261 Q490 278 505 307 Q520 336 520 383 Q520 453 474.5 488.5 Q429 524 330 524 L150 524 L150 231 L309 231 ZM80 0 L80 737 L150 737 L150 584 L349 584 Q421 584 467.5 567.5 Q514 551 541 522.5 Q568 494 579 456.5 Q590 419 590 378 Q590 316 565 276.5 Q540 237 500 213.5 Q460 190 409 181 Q358 172 307 172 L150 172 L150 0 L80 0 Z" /></font>
</defs>
</svg>
